<svg viewBox="0 0 451 218" fill="none" xmlns="http://www.w3.org/2000/svg">
   <path d="M243.733 8.61048L260.957 7.92881V61.4214H273.785V7.92881L291.046 8.61048V1.54271H243.733V8.61048Z" fill="white"/>
   <path d="M418.281 1.54271V61.4214H431.109V7.92881L451 8.61048V1.54271H418.281Z" fill="white"/>
   <path d="M94.8412 43.2677V1.54271H82.0132V61.4214H88.8236L121.074 19.6965V61.4214H133.866V1.54271H127.056L94.8412 43.2677Z" fill="white"/>
   <path d="M243.877 24.791C243.877 24.791 239.229 25.0421 233.031 26.4413L223.987 1.57859H212.312L189.394 61.4573H195.772C202.474 48.7568 219.915 36.451 231.013 33.1503C231.842 32.8992 232.166 33.5091 231.265 34.0473C220.707 40.254 210.186 47.7882 205.429 55.2147C210.33 54.7483 217.176 53.2056 223.914 48.721C236.49 40.3257 243.841 24.8269 243.841 24.8269L243.877 24.791ZM214.077 34.0473C210.15 36.6663 207.123 39.7158 204.853 42.6577L214.762 14.4226H215.122L220.635 30.4596C218.365 31.4641 216.167 32.6481 214.077 34.0473Z" fill="white"/>
   <path d="M227.374 49.869L231.374 61.4214H245.751L238.256 40.7921C234.797 45.0974 229.968 48.2904 227.374 49.869Z" fill="white"/>
   <path d="M323.62 0C306.9 0 293.063 12.3058 293.063 31.5C293.063 50.0843 304.666 63 323.62 63C340.34 63 354.177 50.0843 354.177 31.5C354.177 12.3058 342.574 0 323.62 0ZM323.62 57.5108C312.306 57.5108 307.009 45.8508 307.009 31.5C307.009 17.1492 313.351 5.48918 323.62 5.48918C334.935 5.48918 340.232 17.1492 340.232 31.5C340.232 45.8508 333.89 57.5108 323.62 57.5108Z" fill="white"/>
   <path d="M54.3751 1.54271L35.061 41.5097L16.9359 1.54271H7.49505L0 61.4214H7.13471L11.9632 21.2392L28.6469 59.197H33.7998L52.7896 19.7682L57.2939 61.4214H70.1219L63.5998 1.54271H54.3751Z" fill="white"/>
   <path d="M383.22 1.57859H365.059V61.4573H377.887V40.9356C379.365 41.115 381.238 41.2227 383.508 41.2227C398.462 41.2227 407.363 32.1817 407.363 21.2751C407.363 9.07688 398.354 1.57859 383.22 1.57859ZM380.59 35.7335C379.689 35.7335 378.752 35.6617 377.887 35.59V7.03189H380.59C390.607 7.03189 394.463 13.2745 394.463 21.2751C394.463 29.2756 390.607 35.7694 380.59 35.7694V35.7335Z" fill="white"/>
   <path d="M166.693 1.57859H148.532V61.4573H161.36V40.9356C162.873 41.115 164.711 41.2227 166.981 41.2227C181.971 41.2227 190.835 32.1817 190.835 21.2751C190.835 9.07688 181.827 1.57859 166.693 1.57859ZM164.062 35.7335C163.125 35.7335 162.225 35.6617 161.36 35.59V7.03189H164.062C174.08 7.03189 177.935 13.2745 177.935 21.2751C177.935 29.2756 174.08 35.7694 164.062 35.7694V35.7335Z" fill="white"/>
   <path d="M359.817 155.517C370.853 154.446 381.89 153.341 392.926 152.337C400.861 151.601 408.796 150.999 416.732 150.229C419.466 149.961 421.666 150.43 422.4 153.375C422.967 155.617 420.933 157.525 417.499 158.027C409.263 159.165 401.028 160.269 392.759 161.34C378.789 163.147 364.752 164.62 350.848 166.829C341.946 168.234 334.878 166.394 329.876 158.529C327.209 154.312 323.108 153.04 318.507 153.341C307.804 154.011 297.068 154.814 286.399 155.684C268.327 157.157 250.256 158.696 232.185 160.236C211.246 161.976 119.523 171.012 119.523 171.012L106.353 189.586L88.6818 190.624L101.685 172.384L91.0491 173.388L79.9796 191.025L62.2418 192.163L72.5444 175.195L63.142 176.099L52.0725 192.766L33.7346 193.77L48.3716 170.008C48.3716 170.008 28.1998 148.02 28.4999 147.987L45.6042 146.514L61.875 164.285L73.4113 163.114L57.4072 145.276L74.3782 143.703L90.1155 161.407L102.485 160.303L84.7142 142.732L102.152 141.126L119.656 158.696C119.656 158.696 313.272 140.122 314.773 139.988C321.408 139.419 326.175 136.675 328.843 130.082C331.577 123.455 337.012 120.677 344.247 120.343C365.585 119.372 386.891 118.067 408.23 116.862C410.43 116.728 412.597 116.461 414.798 116.36C417.499 116.26 419.366 117.531 419.532 120.309C419.699 123.02 417.832 124.225 415.365 124.426C397.527 126.099 379.722 127.739 361.885 129.412C359.684 129.613 357.517 129.78 355.35 130.115C351.615 130.684 349.648 132.491 350.215 134.934C350.948 138.114 353.482 138.549 356.183 138.315C361.951 137.846 367.686 137.244 373.421 136.742C387.091 135.47 400.794 134.198 414.465 132.993C416.832 132.792 419.532 132.391 420.533 135.57C421.533 138.683 420.099 140.992 416.565 141.394C407.963 142.364 399.327 143.134 390.725 143.937C379.689 144.975 368.653 145.945 357.617 146.983C356.583 147.083 355.249 147.083 354.649 147.685C353.416 148.957 351.982 150.564 351.815 152.17C351.715 153.04 353.916 154.546 355.35 155.082C356.65 155.584 358.317 155.182 359.817 155.182C359.817 155.249 359.817 155.316 359.817 155.383V155.517Z" fill="white"/>
   <path d="M122.624 135.671V130.115L127.058 129.212V99.4926L122.624 98.589V93H155.232V104.212H148.23L147.897 100.162H136.394V129.212L140.895 130.115V135.671H122.624Z" fill="white"/>
   <path d="M158.266 135.671V130.115L162.767 129.212V99.4926L158.266 98.589V93H178.705C182.039 93 184.906 93.5689 187.34 94.7403C189.774 95.9116 191.641 97.5181 192.942 99.593C194.242 101.668 194.909 104.111 194.909 106.889C194.909 109.667 194.242 112.043 192.942 114.118C191.641 116.193 189.774 117.799 187.34 118.937C184.906 120.075 182.039 120.677 178.705 120.677H172.103V129.212L176.571 130.115V135.671H158.266ZM172.136 113.482H178.738C181.005 113.482 182.706 112.88 183.839 111.641C184.973 110.403 185.573 108.863 185.573 106.956C185.573 105.048 185.006 103.375 183.839 102.103C182.706 100.831 180.972 100.195 178.738 100.195H172.136V113.515V113.482Z" fill="white"/>
   <path d="M197.043 135.671V130.115L201.544 129.212V99.4926L197.043 98.589V93H215.314V98.5556L210.813 99.4592V117.766L210.98 117.833L227.15 101.735V99.4592L222.683 98.5556V93H240.987V98.5556L236.553 99.4592V129.212L240.987 130.115V135.671H222.683V130.115L227.15 129.212V111.24L226.984 111.173L210.813 127.337V129.212L215.314 130.115V135.671H197.043Z" fill="white"/>
   <path d="M243.988 135.671V128.509H245.121C246.455 128.375 247.522 128.007 248.389 127.438C249.256 126.869 249.923 125.999 250.356 124.794C250.823 123.589 251.156 121.983 251.356 119.941C251.556 117.9 251.656 115.323 251.656 112.21V99.4926L247.189 98.589V93H285.898V98.5556L281.431 99.4592V129.212L285.898 130.115V135.671H267.627V130.115L272.095 129.212V100.195H260.925V112.244C260.925 116.427 260.659 120.008 260.025 122.987C259.425 125.965 258.492 128.375 257.258 130.249C256.024 132.123 254.491 133.495 252.657 134.365C250.823 135.236 248.689 135.671 246.188 135.671H243.921H243.988Z" fill="white"/>
   <path d="M289.299 135.671V130.115L293.8 129.212V99.4926L289.299 98.589V93H307.637V98.5556L303.136 99.4592V108.295H309.504C312.872 108.295 315.773 108.863 318.24 109.968C320.707 111.072 322.608 112.645 323.941 114.653C325.308 116.661 325.975 119.037 325.975 121.782C325.975 124.526 325.275 126.969 323.941 129.044C322.574 131.119 320.674 132.759 318.207 133.897C315.739 135.035 312.839 135.637 309.504 135.637H289.299V135.671ZM303.136 128.509H309.504C311.738 128.509 313.505 127.873 314.739 126.568C316.006 125.262 316.606 123.656 316.606 121.748C316.606 119.841 315.973 118.402 314.739 117.23C313.505 116.092 311.738 115.49 309.471 115.49H303.103V128.509H303.136Z" fill="white"/>
   <path d="M135.027 218C132.126 218 129.459 217.465 127.058 216.394C124.658 215.323 122.591 213.817 120.823 211.842C119.056 209.901 117.723 207.592 116.789 204.981C115.855 202.371 115.389 199.493 115.389 196.38V195.711C115.389 192.632 115.855 189.787 116.789 187.143C117.723 184.499 119.09 182.224 120.823 180.282C122.557 178.341 124.624 176.802 127.058 175.731C129.459 174.66 132.126 174.091 135.027 174.091C137.928 174.091 140.562 174.627 142.962 175.731C145.363 176.802 147.463 178.341 149.264 180.282C151.064 182.224 152.431 184.533 153.398 187.143C154.365 189.754 154.865 192.598 154.865 195.711V196.38C154.865 199.493 154.365 202.371 153.398 204.981C152.431 207.592 151.031 209.901 149.264 211.842C147.497 213.783 145.396 215.323 142.962 216.394C140.562 217.465 137.894 218 135.027 218ZM135.027 210.805C137.294 210.805 139.228 210.202 140.795 208.997C142.362 207.793 143.529 206.086 144.329 203.944C145.13 201.802 145.53 199.258 145.53 196.38V195.644C145.53 192.799 145.13 190.323 144.329 188.181C143.529 186.039 142.329 184.365 140.762 183.127C139.195 181.889 137.261 181.32 134.994 181.32C132.726 181.32 130.726 181.922 129.226 183.127C127.692 184.332 126.592 186.005 125.825 188.147C125.091 190.289 124.724 192.799 124.724 195.677V196.414C124.724 199.292 125.091 201.835 125.858 204.011C126.592 206.186 127.758 207.859 129.259 209.064C130.793 210.269 132.693 210.871 135.027 210.871V210.805Z" fill="white"/>
   <path d="M154.965 217.398V211.842L158.733 211.106L170.403 196.38L159.3 181.019L155.932 180.249V174.693H173.37V180.249L169.302 180.617L176.004 190.021L182.806 180.617L178.905 180.249V174.693H196.009V180.249L192.275 181.019L181.572 195.41L193.609 211.072L197.71 211.842V217.398H179.805V211.842L183.339 211.507L176.071 201.534L168.636 211.507L172.103 211.842V217.398H154.932H154.965Z" fill="white"/>
   <path d="M218.081 218C215.181 218 212.513 217.465 210.113 216.394C207.712 215.323 205.645 213.817 203.878 211.842C202.111 209.901 200.777 207.592 199.843 204.981C198.91 202.371 198.443 199.493 198.443 196.38V195.711C198.443 192.632 198.91 189.787 199.843 187.143C200.777 184.499 202.144 182.224 203.878 180.282C205.612 178.341 207.679 176.802 210.113 175.731C212.513 174.66 215.181 174.091 218.081 174.091C220.982 174.091 223.616 174.627 226.017 175.731C228.417 176.802 230.518 178.341 232.318 180.282C234.119 182.224 235.486 184.533 236.453 187.143C237.42 189.754 237.92 192.598 237.92 195.711V196.38C237.92 199.493 237.42 202.371 236.453 204.981C235.486 207.592 234.085 209.901 232.318 211.842C230.551 213.783 228.451 215.323 226.017 216.394C223.616 217.465 220.949 218 218.081 218ZM218.081 210.805C220.349 210.805 222.282 210.202 223.85 208.997C225.417 207.793 226.584 206.086 227.384 203.944C228.184 201.802 228.584 199.258 228.584 196.38V195.644C228.584 192.799 228.184 190.323 227.384 188.181C226.584 186.039 225.383 184.365 223.816 183.127C222.249 181.889 220.315 181.32 218.048 181.32C215.781 181.32 213.78 181.922 212.28 183.127C210.746 184.332 209.646 186.005 208.879 188.147C208.146 190.289 207.779 192.799 207.779 195.677V196.414C207.779 199.292 208.146 201.835 208.912 204.011C209.646 206.186 210.813 207.859 212.313 209.064C213.847 210.269 215.748 210.871 218.081 210.871V210.805Z" fill="white"/>
   <path d="M249.989 217.398V211.842L254.491 210.938V181.956H247.322L246.955 186.809H239.92V174.693H278.563V186.809H271.428L271.061 181.956H263.826V210.938L268.327 211.842V217.398H249.989Z" fill="white"/>
   <path d="M275.996 217.398V211.842L279.03 211.407L292.134 174.727H301.969L315.039 211.407L318.04 211.842V217.398H302.903V211.842L305.77 211.307L304.17 206.019H289.833L288.299 211.307L291.167 211.842V217.398H275.996ZM291.967 199.292H302.103L297.535 185.47L297.101 184.098H296.935L296.468 185.604L291.967 199.325V199.292Z" fill="white"/>
   <path d="M321.875 202.471V174.727H331.21V202.471H321.875ZM321.875 217.398V209.466H331.21V217.398H321.875Z" fill="white"/>
</svg>

