<svg viewBox="0 0 355 174" fill="none" xmlns="http://www.w3.org/2000/svg">
<path d="M350.681 167.566L350.355 167.87H349.712L349.46 167.977H349.042L348.798 168.084H348.444C348.26 168.084 348.17 168.203 347.918 168.212C347.669 168.221 347.632 168.388 347.325 168.413C347.152 168.426 346.999 168.538 346.852 168.611C346.705 168.684 346.571 168.773 346.474 168.839H345.96L345.101 169.254H344.529C344.276 169.316 344.053 169.341 343.93 169.407C343.804 169.473 343.51 169.434 343.287 169.491C343.287 169.523 343.252 169.569 343.218 169.64L342.688 169.883H342.486C342.331 170.025 342.184 170.171 342.024 170.312C341.905 170.413 341.877 170.54 341.64 170.604C341.404 170.668 341.543 170.8 341.333 170.864C341.27 170.882 341.278 170.953 341.249 170.994L339.632 171.783H336.575L336.415 171.861C336.415 171.861 336.36 171.886 336.331 171.886H335.047L334.853 171.982L334.622 171.895L334.393 171.986H333.981L333.737 172.096H331.371L331.148 172.198C330.904 172.219 330.583 172.198 330.263 172.198L330.108 172.276C329.906 172.337 329.683 172.276 329.459 172.292L329.189 172.392C328.916 172.392 328.617 172.445 328.322 172.324C328.191 172.269 327.905 172.301 327.703 172.296L326.886 171.893H325.434L325.266 171.975H324.394L324.116 172.082H323.467L323.252 171.993C323.097 172.111 322.706 172.055 322.617 172.196H322.015C321.813 172.246 321.611 172.303 321.396 172.349C321.178 172.394 320.921 172.403 320.731 172.467C320.545 172.531 320.243 172.49 319.994 172.513L319.757 172.412C319.673 172.445 319.597 172.478 319.526 172.513H319.093L318.676 172.714L318.437 172.627H317.741L317.447 172.825H316.929L316.693 172.933H316.268L316.003 172.816C315.821 172.855 315.632 172.933 315.459 172.926C315.283 172.919 315.097 173.001 314.915 173.021L314.74 172.939H314.083C313.965 172.978 313.868 173.053 313.652 173.047C313.435 173.04 313.484 173.158 313.261 173.142L312.87 173.035C312.626 173.072 312.529 173.172 312.313 173.263H309.48L309.278 173.361H305.148L304.896 173.468H304.04L303.795 173.578H300.091L299.901 173.669L299.568 173.562L299.224 173.66L298.883 173.557L298.541 173.68H293.77L293.531 173.788H293.316L293.135 173.699H291.328L291.16 173.781H290.68L290.499 173.692H289.8L289.569 173.788H288.921L288.697 173.687H287.421L287.198 173.582H286.76L286.542 173.685C286.424 173.693 286.3 173.693 286.179 173.685C286.027 173.664 285.885 173.603 285.725 173.587C285.562 173.578 285.394 173.578 285.231 173.587L285.029 173.489H283.709L283.48 173.585H280.445L280.208 173.692L280.048 173.617C279.893 173.56 279.712 173.596 279.544 173.594L279.316 173.692H278.735L278.373 173.578L277.898 173.706L277.556 173.589H276.065L275.742 173.722L275.338 173.573L274.891 173.68H274.285L274.09 173.585H267.114L266.904 173.487H264.302L264.065 173.382L263.834 173.48L263.64 173.386C263.22 173.357 262.753 173.386 262.293 173.368L262.111 173.281H261.281L260.995 173.174H260.297L259.963 172.946H259.265L258.777 172.816C258.574 172.752 258.546 172.736 258.518 172.736H252.937L252.038 172.508L251.759 172.625H250.517L250.168 172.495L249.833 172.629H249.624L249.442 172.54H248.305L248.04 172.648L247.154 172.419H246.373L246.136 172.312L245.913 172.412H245.473L245.313 172.335C245.033 172.262 244.803 172.335 244.566 172.397C244.514 172.369 244.458 172.343 244.399 172.317L244.169 172.399H243.317L243.073 172.506H242.424L242.215 172.406C241.734 172.39 241.197 172.406 240.659 172.394L240.478 172.308H239.983L239.801 172.394L239.564 172.301H238.043L237.82 172.399H235.86L235.629 172.296H235.204L234.974 172.399H234.534L234.346 172.308H232.804L232.602 172.383C232.523 172.351 232.421 172.327 232.305 172.311C232.189 172.296 232.063 172.291 231.939 172.296L231.702 172.401H229.965C229.804 172.278 229.469 172.296 229.267 172.196C229.197 172.162 228.995 172.196 228.869 172.196L228.451 172.399H226.114L225.333 172.627H224.565L224.168 172.524L223.833 172.428L223.651 172.515L223.421 172.428L223.205 172.517L222.975 172.419H221.879L221.489 172.615H220.331C220.024 172.52 220.038 172.308 219.71 172.212L219.249 172.422H218.608L218.419 172.511H217.722L217.491 172.426H216.794L216.473 172.654C216.285 172.579 216.18 172.52 215.963 172.522C215.859 172.522 215.796 172.41 215.566 172.428L215.231 172.545L214.861 172.445L214.666 172.52C214.443 172.54 214.164 172.499 214.01 172.634H213.354L213.124 172.529H212.078L211.91 172.449C211.715 172.435 211.624 172.584 211.38 172.533C211.136 172.483 211.094 172.629 210.927 172.634C210.759 172.638 210.571 172.661 210.424 172.579C210.362 172.547 210.243 172.538 210.159 172.52L209.887 172.634H209.245L209.015 172.531H208.359L208.171 172.625C207.676 172.661 207.131 172.625 206.601 172.643L206.42 172.73H201.613L201.258 172.622L200.895 172.736H196.367L196.123 172.846H195.042L194.805 172.949C194.756 172.923 194.707 172.88 194.651 172.878C194.198 172.862 193.821 172.695 193.353 172.741L192.74 172.575V172.47C192.74 172.47 192.691 172.435 192.663 172.435H191.554L191.337 172.531H190.451L190.228 172.428H188.917L188.728 172.52H187.159L186.88 172.408L186.405 172.545L186.049 172.431H185.652L185.422 172.531H183.894L183.747 172.458C183.678 172.447 183.615 172.428 183.552 172.428H182.373L182.087 172.552L181.654 172.438H180.894L180.615 172.33H180.182C180.078 172.271 179.882 172.209 179.876 172.143C179.876 172.011 179.638 171.977 179.478 171.886L179.01 171.995H178.438L178.215 171.911H177.322L177.134 172.002H174.099L173.841 172.109H172.976L172.753 172.009H172.097L171.943 172.084C171.881 172.084 171.811 172.111 171.748 172.111H170.778L170.534 172.011L170.353 172.1H165.288L165.1 172.011H164.437L164.214 172.109H163.565L163.335 172.007L163.146 172.098C162.867 172.137 162.546 172.098 162.26 172.116L162.051 172.013L161.814 172.102H160.488C160.384 172.089 160.314 171.966 160.07 172.009L159.84 172.109H158.765L158.528 172.212L158.326 172.116C158.061 172.096 157.74 172.116 157.447 172.116L157.245 172.214L157.007 172.125H156.575L156.344 172.219H153.094L152.856 172.326L152.626 172.223C152.326 172.194 152.166 172.408 151.726 172.301L151.447 172.209L151.077 172.317H146.278L146.09 172.228L145.859 172.328H143.25L143.013 172.399C142.776 172.435 142.685 172.342 142.56 172.299H141.966L141.604 172.419L141.248 172.314L141.039 172.401H140.222L139.874 172.533L139.532 172.408H139.106L138.82 172.529L138.437 172.424L138.227 172.504H136.93L136.707 172.408H136.497L136.26 172.513H134.732L134.572 172.438C134.418 172.383 134.237 172.417 134.062 172.417L133.888 172.504H131.335L130.93 172.629L130.463 172.501L130.121 172.618H129.06L128.83 172.515H127.526L127.365 172.59C127.308 172.605 127.241 172.614 127.17 172.618H125.775L125.468 172.495L125.091 172.599L124.882 172.517H121.393L121.17 172.615H119.649L119.489 172.545C119.426 172.545 119.363 172.513 119.301 172.513H117.019L116.859 172.59C116.799 172.603 116.733 172.611 116.664 172.615H114.836L114.641 172.52H113.294L113.113 172.609L112.889 172.52L112.625 172.609C112.373 172.631 112.331 172.538 112.213 172.513H110.685L110.504 172.602H110.008L109.841 172.52H108.829L108.418 172.387L108.048 172.506H106.576L106.332 172.615H105.906L105.662 172.506H99.3417L99.1534 172.417H98.2255L97.9396 172.529L97.5418 172.41H96.0558C95.9303 172.433 95.8605 172.549 95.6234 172.508L95.3931 172.403H94.7443L94.5211 172.508C94.2769 172.549 94.2071 172.433 93.991 172.394L93.6352 172.49L93.4398 172.412L93.2095 172.508H92.5678L92.1212 172.303C91.877 172.26 91.8074 172.378 91.647 172.403H91.0887L90.719 172.52L90.2516 172.392L89.9098 172.508H89.2959L89.0588 172.613H88.4029L88.2495 172.538C88.0471 172.483 87.831 172.52 87.5519 172.508C87.3426 172.451 87.1194 172.344 86.7426 172.451C86.7129 172.469 86.678 172.486 86.6378 172.501L86.4146 172.412L86.1844 172.508H85.3263L85.1102 172.627H83.8196L83.5334 172.748L83.122 172.641L82.9545 172.723H82.0407L81.7127 172.477L81.2314 172.723H79.034L78.8105 172.828L78.5873 172.741H77.0247L76.8362 172.832H75.3435L75.0993 172.942H74.6458L74.3738 172.818L73.9553 172.914L73.7389 172.837H72.2391L72.0298 172.736H70.0902L69.8252 172.625C69.6997 172.625 69.5393 172.643 69.4206 172.625C69.3019 172.606 69.1693 172.524 68.9601 172.513C68.7508 172.501 68.7019 172.399 68.5208 172.312H67.4741L67.2092 172.412C66.8463 172.504 66.5604 172.242 66.0581 172.349L65.9045 172.415H65.451L65.1301 172.237V171.829C65.0674 171.804 65.0396 171.788 65.0117 171.786C64.9327 171.783 64.8531 171.783 64.7744 171.786L64.6349 171.592L63.8813 171.576C63.8813 171.523 63.8396 171.475 63.8047 171.409C63.7698 171.343 63.5048 171.386 63.3373 171.37C63.2814 171.391 63.1908 171.407 63.1837 171.432C63.0737 171.657 62.7741 171.868 62.3188 172.041V172.312L61.7398 172.328L61.4397 172.556C61.1466 172.403 60.6932 172.428 60.5887 172.232C60.5992 172.201 60.6178 172.169 60.6446 172.139C60.685 172.112 60.7365 172.086 60.7979 172.064C60.5259 171.849 59.9538 171.854 59.5631 171.676L59.1584 171.929L58.6981 171.81C58.6073 171.81 58.5795 171.893 58.4261 171.931C58.4261 172.004 58.4122 172.089 58.3841 172.185C58.2869 172.2 58.1866 172.214 58.0842 172.225C58.0152 172.338 57.8589 172.442 57.6308 172.529H57.1353L57.003 172.333C56.9541 172.283 56.7449 172.333 56.5912 172.319C56.471 172.294 56.3607 172.264 56.2633 172.23L56.0889 172.314H55.6076L55.2448 172.087L55.0077 172.2H54.31L54.2055 172.515H53.3892C53.3892 172.422 53.3335 172.324 53.2776 172.139L52.9218 172.419H51.9521C51.7289 172.481 51.8473 172.577 51.7985 172.707L51.3521 172.841H51.2473C51.0591 172.734 51.1988 172.613 51.1638 172.49C51.1289 172.367 50.766 172.372 50.9824 172.223H50.1382L49.8872 172.426H49.308L49.0848 172.324H45.806L45.6456 172.399C45.4852 172.451 45.3108 172.422 45.1362 172.419L44.7316 172.223L44.4945 172.317H44.0688L43.8388 172.216H43.1968L42.9597 172.114L42.8061 172.189C42.8061 172.189 42.7504 172.214 42.7226 172.214H41.676L41.383 172.33L40.9156 172.221V172.486C40.7273 172.581 40.518 172.486 40.3017 172.554C40.3017 172.383 40.3017 172.264 40.2599 172.153C40.0157 172.059 39.7505 172.153 39.5623 172.098L39.3042 172.216H38.8785C38.6971 172.285 38.8089 172.381 38.7809 172.445L38.4739 172.648L38.2368 172.536H37.5391L37.2393 172.308H36.4369C36.0254 172.47 35.4322 172.486 35.1463 172.725C34.7905 172.675 34.5602 172.828 34.2465 172.834C33.8069 173.074 33.4233 172.88 33.0533 172.784C32.8312 172.707 32.6435 172.619 32.4954 172.524H32.1884C32.1112 172.531 32.0364 172.54 31.9652 172.552V172.798C31.8187 172.882 31.6163 172.812 31.4697 172.848L30.9328 172.604C30.7721 172.679 30.6258 172.752 30.4444 172.832C30.1931 172.832 30.1164 172.691 29.9001 172.618L29.3001 172.9V173.083C29.2095 173.163 29.0769 173.165 28.9304 173.136C28.844 173.02 28.8204 172.9 28.8608 172.782C28.6794 172.688 28.4701 172.732 28.2398 172.755C28.2398 172.798 28.2398 172.846 28.1771 172.9C27.9746 173.001 27.6958 172.9 27.4794 172.955L27.2074 172.837H25.4982C25.2819 172.914 25.1563 173.051 24.8006 173.065C24.668 173.065 24.4726 173.265 24.2773 173.482C24.2773 173.512 24.2145 173.539 24.1866 173.569L23.4262 173.587C23.4262 173.724 23.4262 173.842 23.3913 173.954C23.2239 174.036 23.0286 173.979 22.8612 173.998L22.624 173.89H21.3403L21.152 173.801H20.559L20.1544 173.667L19.7986 173.772L19.5893 173.685H17.4406L17.1964 173.578H16.6872L16.2616 173.366H16.0454L15.4175 173.058H15.0059C14.9734 173.003 14.9315 172.944 14.8803 172.88C14.7338 172.802 14.5385 172.88 14.1827 172.784L12.7874 172.431H12.2642C12.0759 172.397 12.0131 172.269 11.7829 172.33L11.462 172.029L11.8736 171.927V171.74C11.741 171.649 11.5457 171.701 11.3713 171.685C11.3224 171.667 11.2457 171.653 11.2108 171.628C10.907 171.417 10.6844 171.195 10.5481 170.967C10.4423 170.817 10.3 170.669 10.1225 170.527V170.315C9.92605 170.174 9.78988 170.026 9.71791 169.874C9.71791 169.722 9.43887 169.646 9.44583 169.496C9.41781 169.373 9.30322 169.253 9.11097 169.147C8.94355 169.033 9.18772 168.85 8.81799 168.782C8.8668 168.641 8.50406 168.554 8.58078 168.404C8.58078 168.342 8.43429 168.26 8.38545 168.175C8.33661 168.091 8.38545 168.034 8.27383 167.986C8.16221 167.938 8.15522 167.865 8.16221 167.797C8.195 167.698 8.12889 167.599 7.97384 167.514C7.87619 167.466 7.92503 167.352 7.88317 167.272C7.84631 167.244 7.79434 167.218 7.72967 167.195V166.88C7.66681 166.857 7.61721 166.83 7.58318 166.8C7.46555 166.651 7.31157 166.506 7.12276 166.365C7.08098 166.317 7.06216 166.267 7.06694 166.216C7.06694 166.185 7.06693 166.137 7.03206 166.121C6.84044 166.016 6.69484 165.903 6.59953 165.786C6.40538 165.67 6.32726 165.538 6.37629 165.407C6.11818 165.332 6.10421 165.179 5.95772 165.067C5.73474 164.909 5.65486 164.733 5.72749 164.561L5.51822 164.461V164.052L5.29498 163.925V163.726L5.07174 163.608V163.298C4.76479 163.154 4.74384 162.933 4.45086 162.787C4.38201 162.578 4.22468 162.374 3.98345 162.18V161.818L3.76021 161.699V161.172L3.62766 161.113C3.57882 161.088 3.53697 161.074 3.53697 161.06V160.328L3.33466 160.23V159.599L3.11837 159.496V158.878L2.89513 158.746V158.449L2.67192 158.324V157.911L2.44169 157.804V157.279L2.2324 157.181C2.18357 156.983 2.2324 156.757 2.2324 156.534L2.02311 156.436V155.592L1.78592 155.48V154.839L1.55571 154.727V154.201L1.39525 154.107V151.895L1.17201 151.781V151.574L1.3813 151.462C1.47199 151.345 1.22085 151.314 1.15109 151.209L1.36735 150.833V148.395L1.17899 148.306V147.998L1.3813 147.888V146.312C1.13016 146.235 1.17201 146.071 0.962726 145.973C0.892965 145.938 0.962726 145.84 0.962726 145.779L1.15806 145.686V144.411L0.983656 144.303V141.432L1.17201 141.341V140.611L1.39525 140.491V139.122L1.15109 138.995L1.22085 138.917C1.36037 138.819 1.39525 138.805 1.39525 138.789C1.40231 138.755 1.40231 138.719 1.39525 138.684V137.366C1.39186 137.35 1.39186 137.333 1.39525 137.316L1.57663 137.229L1.38828 137.115V136.304L1.10923 136.114L1.37432 135.941V135.64L1.16504 135.528L1.32549 135.451C1.38469 135.337 1.38469 135.22 1.32549 135.106L1.15108 134.999L1.33944 134.908V133.966C1.21387 133.859 1.08132 133.738 0.913892 133.608V132.924L1.32549 132.559V131.615L1.13713 131.524V130.997L0.906916 130.894V128.456L0.697628 128.361V127.727L0.906916 127.617V125.932L1.12318 125.823V125.615L0.920866 125.506V122.97L1.10923 122.881V122.333L0.920866 122.244V121.608L1.12318 121.499V121.193L1.39525 121.027L1.13713 120.86V120.651L1.31851 120.562V120.333L1.15108 120.249V119.264L1.33246 119.175V118.327L1.13713 118.219V118.119L1.35339 118.005V117.586L1.19294 117.51C1.16497 117.48 1.14627 117.448 1.13713 117.417V116.32C1.19992 116.286 1.25573 116.26 1.33246 116.226V114.432L1.10923 114.263L1.33944 114.085V113.896L1.14411 113.789L1.34642 113.679V113.152L1.18596 113.075C1.12167 112.994 1.10979 112.911 1.15108 112.829L1.33246 112.742V111.362C1.33246 111.346 1.2348 111.308 1.15806 111.257L1.15806 110.927L1.34642 110.838V109.686L1.13713 109.577V109.369L1.34642 109.257L1.19294 109.182C1.16366 109.152 1.14493 109.12 1.13713 109.089V108.206L1.33246 108.11V107.691C1.06161 107.526 0.917891 107.343 0.91389 107.157L1.13015 107.043V104.306L0.983653 104.24C0.954184 104.209 0.933176 104.177 0.920866 104.145V103.46L1.1162 103.367V102.498L0.941793 102.414L1.13015 102.3V101.887L0.704602 101.529V101.02L0.865056 100.947C0.9375 100.831 0.953977 100.712 0.91389 100.594L0.697626 100.514V99.3327L0.927843 99.1958L0.697626 99.0135V96.5846L0.879007 96.4957L0.66972 96.3816V95.4376L0.488339 95.3191L0.66972 95.2302V93.1115C0.66972 93.0955 0.586006 93.0569 0.502289 93.0022V92.774L0.683673 92.6851V92.2609L0.488339 92.1515V92.0513C0.488339 92.0145 0.627863 91.9759 0.704602 91.9394L0.7046 90.4662L0.453456 90.3317L0.683673 90.1036V89.8459L0.460432 89.6793L0.690649 89.4993V87.6225L0.488336 87.5107V86.9931L0.265098 86.8812V86.676L0.488336 86.5551V85.9303L0.676696 85.8414V85.513L0.495313 85.4263V85.0114L0.272075 84.8836V84.6852L0.048834 84.569L0.265098 84.4549V84.1447L0.676696 83.9464V83.5244C0.41006 83.3648 0.266395 83.1864 0.258121 83.0046L0.0488337 82.8928C0.0248807 82.8538 0.0322241 82.8138 0.0701419 82.7762C0.10806 82.7387 0.175247 82.705 0.265098 82.6785V82.4708L0.467409 82.3614V81.7206C0.216263 81.6568 0.293002 81.5405 0.251145 81.4425C0.192366 81.371 0.10807 81.3022 0 81.237L0.251145 81.0959V80.578L0.690647 80.3499V79.7229C0.613909 79.6749 0.474385 79.6271 0.488336 79.5975C0.599956 79.4037 0.0767385 79.2645 0.299979 79.0662L0.495313 78.975V78.5508L0.697623 78.4436V78.2315L0.272072 78.0172V77.383C0.334859 77.3535 0.411599 77.3331 0.432526 77.3032C0.516242 77.1803 0.432526 77.032 0.7046 76.9362V76.3319L0.495313 76.2316V75.3854L0.697623 75.2738V74.9658L0.920864 74.8496V74.43L1.1162 74.3386V74.1107L1.29758 74.0262V72.8861L1.51384 72.7491V72.3161L1.32548 72.2246V71.812L1.10224 71.691V71.6021L1.31153 71.4905V71.1688L1.10922 71.0594V70.3046C1.45106 70.2247 1.47896 70.0264 1.74406 69.901V69.3857L1.9673 69.2669V68.1997L1.60454 68.1403C1.60454 68.129 1.54175 68.1152 1.54175 68.1017V67.2623L1.7022 67.185C1.72929 67.1726 1.74829 67.1588 1.75801 67.1438V66.0766C1.75801 66.0446 1.94637 66.0537 2.06497 66.0377L2.37192 65.7527V65.1553L2.17659 65.0459V64.8473L1.95335 64.7288V64.1997L2.36494 64.0105V63.4517L1.9673 63.2603C1.9464 63.2125 1.9464 63.1642 1.9673 63.1164C2.07892 62.9797 2.22542 62.8496 2.39285 62.6742V62.3047L2.18356 62.1953V61.9876L2.41378 61.8622C2.41378 61.8145 2.35099 61.7689 2.31611 61.7186L2.06497 61.8258L1.74406 61.6731V61.4609L1.96032 61.3516V61.1439L1.74406 61.0345C1.66034 60.9182 1.90451 60.884 1.94637 60.8268V60.599L1.75801 60.51V59.7436L2.39982 59.5157V58.7106L2.56028 58.633C2.63377 58.5176 2.64792 58.3988 2.60214 58.282L2.42075 58.1953V57.8738L2.58121 57.7757C2.58121 57.689 2.72772 57.5841 2.47656 57.502L2.33006 57.7003H2.05799C2.01613 57.6799 1.9673 57.6686 1.9673 57.6548V56.0948L1.74406 55.9764L1.89754 55.9034C1.9262 55.8722 1.9449 55.8402 1.95335 55.8076L1.95334 54.9252L1.5278 54.72L1.72313 54.6059V53.7666L1.52082 53.6572V53.3448L1.73708 53.2285V53.0598L2.09287 52.7654L2.42773 52.7314L2.19054 52.5419L2.42773 52.3688V51.4565L2.65795 51.338C2.73467 51.2331 2.53237 51.1897 2.43471 51.1099V50.7997L2.04404 50.6218C1.91149 50.526 2.19054 50.3573 1.77196 50.3139L1.9952 50.1816L1.77196 50.0631C1.79622 50.0192 1.82884 49.9758 1.86963 49.933C1.91149 49.8899 1.98125 49.8532 2.04404 49.8054L1.79987 49.6436V49.4155L2.09287 49.3677L2.4068 49.0802V48.6766L1.98125 48.5396V47.7417L1.59058 47.5545C1.44408 47.4109 1.65337 47.3084 1.74406 47.1852C1.83475 47.062 1.69522 46.9366 2.03706 46.8911L1.54175 46.4464V46.1589L1.74406 46.063V45.7302L2.16961 45.525V44.8909L2.37192 44.7929V44.159L2.16961 44.0471V43.9491C1.87516 43.9019 1.64428 43.8207 1.52082 43.7212C1.44408 43.6094 1.65337 43.566 1.7301 43.4931C1.68825 43.3404 1.33944 43.2285 1.56965 43.0484C1.79987 43.0849 2.01613 43.1967 2.33704 43.1053L2.39285 42.989L1.94637 42.7612C1.96023 42.583 2.10372 42.4088 2.36494 42.2524V41.8967L1.66732 41.6208L1.93939 41.338V40.9778L2.13473 40.8842C2.197 40.7884 2.17524 40.6889 2.07194 40.597C1.83281 40.458 1.71685 40.3001 1.73708 40.1407C2.02539 40.0899 2.25549 40.0101 2.39285 39.9128V39.6118L2.62306 39.4886V38.971L2.7905 38.8912C2.97188 38.7247 2.67888 38.6062 2.59516 38.4692C2.51144 38.3325 2.19751 38.2982 1.95334 38.2411V38.0314L1.73708 37.9218C1.65337 37.8055 1.89753 37.7715 1.9673 37.6732L1.73708 37.3951L2.26727 37.2128L1.79987 36.9709V36.6516L1.98125 36.5626L1.75801 36.3939L1.9952 36.216V36.0268L1.79987 35.9197L2.21146 35.7076C2.2882 35.5891 2.07892 35.5479 2.00915 35.4794C2.00915 35.3132 2.2882 35.2789 2.43471 35.174V34.9732L2.66491 34.8525L2.09287 34.5948C2.06451 34.5735 2.04345 34.5514 2.03008 34.5285V33.5182L2.23239 33.3953C2.25014 33.3506 2.25014 33.3053 2.23239 33.2605C2.14868 33.1442 2.03008 33.0327 1.91846 32.9186L1.69522 33.028C1.59026 32.9865 1.49906 32.9412 1.42315 32.8935C1.31594 32.7902 1.22513 32.6852 1.15108 32.5789C1.13475 32.525 1.13475 32.4706 1.15108 32.4168L1.47896 32.3828C1.7022 32.2822 1.51384 32.2115 1.35339 32.1342V31.6094C1.59756 31.5321 1.53477 31.3587 1.78591 31.2766V30.7566L1.98822 30.6585V29.8148L2.19751 29.7123V29.0599L2.01613 28.971V28.5675C1.8631 28.4857 1.76114 28.3951 1.71615 28.3007L1.39524 28.2573C1.23479 28.1866 1.39524 28.0908 1.31153 28.0179L1.52779 27.9129V27.7077C1.52779 27.6439 1.69522 27.5846 1.77894 27.5275L1.53477 27.377V26.3121L1.72313 26.2231L1.52082 26.1091V25.6918L1.7301 25.5823V25.1604L1.53477 25.0669V24.8389L1.39524 24.7431V23.6895L0.969692 23.4843C0.916846 23.3619 0.933399 23.2375 1.01853 23.1171L1.31851 23.1924C1.47198 23.0806 1.31851 22.9643 1.38129 22.8754L0.488331 22.0658V21.8195L0.0488287 21.4478L0.0488285 20.9393L0.230211 20.8503C0.313927 20.6405 0.230211 20.4148 0.279044 20.1913L0.47438 20.1001V18.5037C0.739475 18.4102 1.00457 18.4877 1.22084 18.4444L1.66732 18.6588L2.15565 18.6725L2.4068 18.4855C2.16961 18.335 1.70917 18.3167 1.4371 18.1388C0.788308 18.091 0.739475 17.7945 0.390664 17.5619L0.955739 17.4H1.24177L1.47896 17.5003C1.47896 17.4661 1.54872 17.4365 1.56965 17.4068C1.67429 17.2723 1.42315 17.1902 1.34641 17.083C1.24712 16.9172 1.03227 16.7611 0.718548 16.6269V16.2894L0.906905 16.1982V15.8926L1.13015 15.7695V15.0465L0.976668 14.9553C0.906131 14.8413 0.884996 14.7246 0.913882 14.6087L0.760405 14.5334C0.728806 14.5031 0.707745 14.4718 0.697618 14.4399V13.9838L0.892952 13.8903V13.27L1.13712 13.1173V11.1264L1.33943 11.0283V9.55973L1.56965 9.43887V9.02381L2.00915 8.79576V8.43317L2.33704 8.12986C2.44168 8.02726 2.70676 8.04778 2.86026 7.98163C2.86318 7.96492 2.86318 7.94818 2.86026 7.93147V7.521L3.47416 7.31573L3.96948 6.83229V6.58143C4.1369 6.49249 4.33921 6.57002 4.51361 6.51986C4.60431 6.38075 4.92522 6.26218 4.79268 6.05009C4.94615 5.98394 5.10661 5.91327 5.27403 5.84712C5.40776 5.78241 5.49152 5.70808 5.51819 5.63047C5.59565 5.5427 5.69601 5.45725 5.81819 5.37505H6.05537C6.17928 5.31261 6.27777 5.24516 6.34837 5.17437C6.36187 5.12935 6.40425 5.0858 6.47276 5.0465C6.54129 5.00719 6.6344 4.97306 6.74602 4.94632C7.0181 4.8802 7.29713 4.81864 7.65292 4.73653H7.97384C8.3087 4.66356 8.28777 4.47199 8.52496 4.36939C8.76217 4.26676 8.94353 4.17327 9.18073 4.05923C9.18073 3.95433 9.18073 3.83118 9.2156 3.70576L9.53652 3.66927C9.87834 3.50508 9.43186 3.3751 9.41093 3.21317L9.71791 3.05583L9.96208 3.14705H10.576L10.8271 3.25195C10.9876 3.13794 11.3434 3.16984 11.5247 3.04671H12.5991L12.7595 2.96916C12.9619 2.90075 13.2897 3.00567 13.4572 2.85515L14.1548 3.03301L14.3571 2.94408H15.2501L15.3826 2.76392C15.3826 2.75253 15.4314 2.73428 15.4594 2.73428H16.743C16.8612 2.68488 16.9663 2.63223 17.0569 2.57693C17.0927 2.52837 17.1114 2.47864 17.1127 2.4287H17.6778C17.6778 2.69551 18.194 2.71376 18.5149 2.83918H19.366L19.5195 2.76392C19.5195 2.76392 19.5753 2.73656 19.6032 2.73656H20.6706L20.8659 2.64306H21.9124L22.2333 2.52448H23.7192L23.9494 2.41274H24.8284L25.0238 2.31696H26.9771L27.263 2.19153L27.6748 2.30327L27.905 2.22346H29.1746L29.4886 2.10259H31.2116L31.3931 2.00453H32.6907L32.9349 1.89735H34.2323L34.393 1.82438C34.4486 1.80157 34.4486 1.79017 34.4697 1.79017H36.2137L36.3741 1.71263C36.43 1.68755 36.43 1.68527 36.4579 1.68527H39.2482L39.4646 1.58036H40.9925L41.2225 1.46862H43.4061L43.6154 1.36372H45.5689L45.8128 1.25654H46.2385L46.4688 1.35688L46.6292 1.28162C46.6292 1.28162 46.6851 1.25654 46.713 1.25654H49.0081C49.0404 1.25785 49.0732 1.25785 49.1058 1.25654L49.2801 1.17216H50.8569L51.0242 1.25426H51.9521L52.1335 1.16532H53.6683L53.8985 1.26566H54.3239L54.5542 1.16304H57.6376L57.7841 1.366H58.9631C58.9631 1.42757 59.019 1.47546 59.0539 1.54844L59.3538 1.67614L59.5701 1.58949L59.7933 1.68983H60.2258L60.4632 1.58036H61.5444L61.7466 1.48458H63.4838L63.6931 1.38196H64.3907L64.6068 1.48458H71.5832L71.7785 1.58036H73.5296L73.7528 1.48002L73.9062 1.553C73.9062 1.5644 73.9621 1.58265 73.9899 1.58265H76.3759L76.5642 1.67614H78.9221L79.2151 1.78561H82.0058L82.2707 1.89507H82.9127L83.2543 1.76964L83.645 1.91559L84.0428 1.80613L84.4614 2.00681H85.3334L85.5356 2.10487L85.8079 2.00225H86.4425L86.6799 1.89735L86.8681 1.98857C87.2938 2.02506 87.7611 1.98857 88.2146 2.00909L88.4378 2.09803L88.8353 1.90647C89.0588 1.86086 89.1565 1.97716 89.2959 1.98857C89.3899 1.99685 89.4776 2.01148 89.5532 2.03151C89.6291 2.05154 89.6911 2.07653 89.7354 2.10487H90.8306L91.026 2.01137L91.7236 1.99313L91.9539 1.90191L92.17 2.00453H93.4747L93.6769 2.10259H94.556L94.7792 2.00225H96.7396L96.9696 2.10487C97.207 2.14592 97.2768 2.0319 97.4023 2.00681H97.8487L98.037 2.09575H98.951L99.1324 2.00681H99.7602L100.053 2.10943C100.381 2.09575 100.458 1.95208 100.66 1.89735H101.525L101.762 1.99541L101.951 1.90419H102.481C102.739 1.87911 102.802 1.7514 103.046 1.79473L103.283 1.89279H103.883L104.713 1.66474L105.034 1.77648H106.737L106.96 1.69211H109.171L109.353 1.78105H110.015L110.246 1.68299H111.536L111.78 1.5758H117.591L118.191 1.42757C118.422 1.36828 118.533 1.26338 118.743 1.16304C118.896 1.18812 118.959 1.31583 119.189 1.24514L119.433 1.49371L119.991 1.36372L120.34 1.48915C120.577 1.55984 120.808 1.3888 121.17 1.36828L121.505 1.58265H122.9L123.2 1.69439C123.5 1.66702 123.591 1.55984 123.807 1.48002H124.875L125.084 1.37968H126.814L127.512 1.57124L127.763 1.4595L128.265 1.59633L128.719 1.36828L129.151 1.4823L129.486 1.36372H130.33L130.518 1.2725C130.798 1.22461 131.118 1.2725 131.411 1.25198L131.844 1.4595H132.772L133.002 1.2611H134.021L134.363 1.12655L134.711 1.25426H135.367L135.548 1.16304H136.037L136.232 1.25882H137.104L137.299 1.35232L137.662 1.23373L138.234 1.46178C138.234 1.40933 138.297 1.36372 138.339 1.29075L138.569 1.2497L138.744 1.19953C138.837 1.17625 138.935 1.15492 139.037 1.13567L139.302 1.24514L139.525 1.15848H140.383L140.843 0.946394H141.262C141.478 1.03989 141.722 1.17444 141.96 1.28162C142.357 1.20637 142.532 1.03989 142.797 0.950954H144.548L144.959 1.14936L145.197 1.05586H147.199L147.422 1.1562H147.861L148.259 0.957796H150.059L150.338 1.06954L150.694 0.964639L151.036 1.07182L151.398 0.937272C151.58 0.907625 151.663 1.00797 151.796 1.04673H152.668L152.829 0.969199C153.24 0.852896 153.526 1.10147 153.994 1.03989L154.314 1.26794H155.933L156.163 1.16532H156.589L156.819 1.26794H157.9L158.138 1.17216C158.319 1.24514 158.423 1.3432 158.695 1.38653L159.03 1.2725H159.868L160.098 1.37512H160.53L160.684 1.29987C160.921 1.23601 161.179 1.29987 161.381 1.26794L161.633 1.37056L161.821 1.27934H164.193L164.723 1.0513C165.023 1.0513 165.107 1.17672 165.274 1.23601C165.274 1.23601 165.33 1.26338 165.365 1.26338H166.411L166.704 1.1448L167.541 1.35232C167.639 1.32039 167.744 1.25198 167.953 1.25654C168.058 1.25654 168.114 1.1448 168.358 1.16304L168.637 1.25654C168.943 1.28846 169.334 1.24285 169.711 1.2725L169.997 1.3888L170.402 1.27022H173.422C173.541 1.28846 173.597 1.41845 173.911 1.33863L174.078 1.26566H176.687L176.959 1.14251L177.434 1.25198H180.224L180.392 1.1676H181.208C181.529 1.04217 181.961 1.02165 182.136 0.848336C182.387 0.802726 182.478 0.905347 182.631 0.950954H183.252L183.482 1.04673H185.233L185.422 0.957796H186.084C186.189 0.898506 186.391 0.841492 186.405 0.775361C186.405 0.647653 186.628 0.604324 186.754 0.526789H187.403L187.654 0.636252L187.801 0.43785L188.303 0.408204C188.498 0.31892 188.634 0.217104 188.7 0.109463H189.147L189.37 0.205242L189.6 0.102621H190.026L190.186 0.0273656C190.249 0.0273656 190.312 0 190.382 0H191.505C191.727 0.0685621 191.96 0.133264 192.202 0.19384C192.412 0.24401 192.719 0.166474 192.9 0.312424H193.528C194.004 0.485043 194.295 0.70354 194.358 0.934993C194.86 0.909907 195.223 1.13795 195.684 1.0513C195.872 1.07866 195.942 1.19953 196.186 1.15848L196.416 1.05586H197.058L197.295 0.953236L197.449 1.02849C197.686 1.08778 197.937 1.02849 198.202 1.06726L198.293 0.884823L198.551 0.830091C198.844 1.03533 199.402 1.05814 199.674 1.2725L200.086 1.0741L200.553 1.18584C200.686 1.09234 200.804 1.00341 200.881 0.957796H201.432L201.662 1.0627C202.123 1.08322 202.13 0.868859 202.36 0.711505C202.416 0.914467 202.36 1.07182 202.395 1.22461L202.715 1.3774H203.371L203.867 1.14936L204.278 1.2611L204.432 1.18812L205.192 1.37968C205.492 1.38732 205.793 1.38732 206.092 1.37968C205.995 1.28618 205.932 1.21777 205.855 1.15164L206.169 0.989723C206.392 1.01253 206.469 1.11515 206.643 1.17672L206.908 1.06498L207.02 1.37284L207.355 1.40021L207.459 1.10603C207.808 0.998846 207.871 1.19041 208.073 1.22005V1.34092L208.652 1.48458L209.266 1.07182L209.685 1.27478H210.606L210.794 1.18584L211.031 1.28846L211.234 1.07638H211.471L211.875 1.27478L212.106 1.18584L212.336 1.27934H213.187C213.258 1.16512 213.419 1.05896 213.654 0.971481C213.873 1.05691 214.009 1.16171 214.045 1.2725H217.108C217.498 1.14251 218.056 1.07866 218.168 0.78448C218.328 0.729751 218.51 0.761675 218.705 0.761675C218.728 0.822713 218.775 0.88252 218.845 0.939553C218.907 0.9671 218.951 0.998481 218.975 1.0318C218.999 1.06512 219.002 1.09968 218.984 1.13339C219.119 1.14947 219.246 1.17174 219.361 1.19953C219.472 1.24058 219.563 1.29987 219.752 1.27706L220.198 1.0741L220.352 1.14936C220.421 1.14936 220.484 1.17672 220.547 1.17672H223.679L223.979 1.05358L224.398 1.16988H224.998L225.221 1.07638H225.653L225.877 1.17444H226.519L226.77 1.28846C227.266 1.21008 227.656 1.07443 227.865 0.907625L227.97 0.732032L228.221 0.841492L228.451 0.738873C228.751 0.711505 228.911 0.923589 229.239 0.843773C229.449 0.896224 229.637 0.971481 229.937 0.953236C230.236 0.944088 230.538 0.944088 230.837 0.953236L231.067 1.04217L231.43 0.934993L231.772 1.05814H232.392L232.63 1.16076L232.811 1.07182C232.903 1.06547 232.996 1.0609 233.09 1.05814H233.453L233.739 0.953236H240.303C240.389 0.796058 240.604 0.649437 240.924 0.529068H241.796L242.006 0.431009C242.27 0.421936 242.537 0.421936 242.801 0.431009C242.944 0.468052 243.096 0.501592 243.255 0.531349C243.586 0.585076 243.896 0.652522 244.175 0.732032C244.232 0.755839 244.275 0.782912 244.301 0.811848C244.314 0.849741 244.314 0.887977 244.301 0.925871L244.622 0.966918L244.831 1.06042H247.224L247.447 1.16076C247.684 1.19497 247.775 1.0969 247.956 1.04446L248.41 1.1676H253.133L253.335 1.26566H255.937L256.182 1.37284L256.412 1.2725H257.054L257.305 1.37968H258.379L258.567 1.47318L258.798 1.38653L259.028 1.47774H261.609L261.86 1.58721H263.813L264.057 1.69439H266.003L266.234 1.79017L266.465 1.70123L266.652 1.79245L266.875 1.70123L267.106 1.79701H268.849L268.983 1.86771C269.233 1.93384 269.493 1.88823 269.729 1.90875L269.884 1.98401C270.128 2.04102 270.378 1.98401 270.58 2.01366L270.79 1.91331L271.026 2.00225H273.623L274.361 1.79929H276.259L276.385 1.86314C276.433 1.88367 276.461 1.90191 276.49 1.90191H279.098L279.3 1.99997H280.592L280.92 2.13224L281.29 2.02277L281.506 2.10943H284.1C284.268 2.23258 284.63 2.20293 284.798 2.32152H287.776L288.587 2.11171H291.118L291.321 2.01366H297.599C297.796 1.97945 297.859 1.85174 298.163 1.93384L298.331 2.00681H298.757L298.988 1.90647H307.944L308.133 1.99541H309.927L310.108 1.90875L310.344 2.00225H315.362L315.59 1.90419H326.251L326.996 2.114H327.514C327.842 2.20749 328.254 2.23942 328.435 2.43098C328.798 2.36941 329.026 2.52904 329.32 2.54272L329.572 2.43326L329.725 2.50624C329.961 2.56781 330.213 2.50624 330.478 2.54728C330.478 2.49255 330.541 2.43782 330.57 2.38309C330.925 2.30506 331.203 2.19494 331.371 2.0661L331.762 2.20293C331.914 2.08435 332.272 2.114 332.461 1.99997C332.747 2.01137 332.912 1.81981 333.24 1.89507L334.007 1.68755H335.026L335.27 1.58036H338.103L338.34 1.68755H338.773C338.928 1.82209 339.206 1.77877 339.471 1.80385C339.471 1.8449 339.519 1.89279 339.555 1.96348C339.59 2.03418 339.855 1.97945 340.015 2.00453C340.175 2.02962 340.246 2.09575 340.364 2.10031C340.469 2.10779 340.564 2.12553 340.637 2.15119C340.711 2.17685 340.761 2.20921 340.776 2.24398C340.845 2.39449 341.16 2.47203 341.228 2.57465C341.307 2.67897 341.449 2.77732 341.64 2.86426C341.842 2.96689 342.052 3.06268 342.179 3.12424C342.874 3.2451 343.105 3.52333 343.573 3.68753H343.969L344.213 3.79469H345.518C345.631 3.85996 345.763 3.92177 345.91 3.97941C346.02 4.00885 346.146 4.03128 346.28 4.04556V4.16186C346.332 4.18122 346.388 4.1995 346.448 4.2166C347.249 4.38762 347.244 4.38991 347.59 4.72512C347.682 4.87971 347.863 5.02694 348.128 5.15841H349.139C349.384 5.22456 349.594 5.28386 349.804 5.3363C350.011 5.38875 350.334 5.40472 350.389 5.52558C350.463 5.63045 350.597 5.72963 350.786 5.81748C350.904 5.89501 350.899 6.01131 351.085 6.07517C351.08 6.18794 351.145 6.29991 351.282 6.40356C351.327 6.52395 351.327 6.64575 351.282 6.76614L351.623 7.06945L351.938 7.36363V7.95429L352.162 8.07285V8.91206C352.508 9.11401 352.671 9.34441 352.629 9.57569L352.941 9.60762L353.241 9.75129V9.95424L353.464 10.0751V11.1219L353.716 11.2541L353.485 11.5004V11.8539L353.241 11.993C353.341 12.1769 353.566 12.3509 353.905 12.5015V12.7136L353.682 12.8276V13.245L353.464 13.3476V13.5756C353.464 13.66 353.354 13.6942 353.291 13.7535C353.228 13.8128 353.291 13.9245 353.193 13.9952C353.096 14.0659 352.991 14.0933 353.025 14.1731C353.049 14.214 353.041 14.2562 353.004 14.2959C352.968 14.3356 352.899 14.3718 352.81 14.4012V14.8185L352.587 14.9348V15.5687L352.739 15.6372C352.771 15.6684 352.792 15.7005 352.802 15.7329V16.6223L352.613 16.7136V18.4855L352.398 18.6223C352.303 18.7638 352.356 18.9117 352.55 19.0419C352.629 19.0784 352.587 19.1742 352.592 19.2312C352.6 19.2882 352.264 19.3475 352.432 19.498L352.587 19.5778L352.39 19.669V19.986L352.183 20.0887L352.571 20.4535V20.7203L352.802 20.8435V21.1559L352.587 21.2677V21.5801L352.377 21.6895V21.8879L352.587 22.0065V22.6907C352.59 22.7058 352.59 22.7211 352.587 22.7363L352.419 22.8184V23.3657L352.6 23.4569V24.8252L352.398 24.9369V27.4751L352.183 27.5914V29.2743L352.398 29.3908V29.678L352.592 29.8056V30.3006L352.81 30.4351V31.2927L352.621 31.3816V33.6005L352.831 33.7099V34.5492C352.587 34.6108 352.642 34.7589 352.461 34.8456C352.28 34.9323 352.529 35.0964 352.225 35.1648C352.225 35.2833 352.167 35.393 352.146 35.5184L351.973 35.6004V36.1318L352.167 36.2412V36.6607L351.959 36.7703V37.1877L352.183 37.3039V39.3038L352.364 39.3906C352.453 39.6005 352.364 39.8283 352.419 40.0496L352.613 40.1432V42.1475L352.815 42.248V44.9845L353.046 45.1099V46.1614L352.831 46.2707V47.3266L352.684 47.3951C352.653 47.426 352.629 47.4581 352.613 47.4907V48.2753L352.81 48.3665V49.8557L352.634 49.9651V50.4987L352.815 50.5898V51.4361L352.621 51.5476V51.9628C352.802 52.1036 352.944 52.2494 353.046 52.3983C353.046 52.5488 353.375 52.6607 353.299 52.8247C353.632 52.8977 353.362 53.0938 353.606 53.1852C353.75 53.2377 353.674 53.3106 353.708 53.3744C353.766 53.4478 353.837 53.5202 353.918 53.5909V53.7597L353.708 53.8693V54.7108L353.863 54.786C353.889 54.8166 353.91 54.8478 353.926 54.8796V56.0766L353.724 56.1954L353.905 56.2843V56.7268L353.716 56.8157V57.4496C353.834 57.5139 353.913 57.5852 353.947 57.6595C353.947 57.7233 354.191 57.7757 354.344 57.8417C354.393 57.9992 354.344 58.1541 354.344 58.298C353.931 58.4369 353.863 58.6902 353.472 58.8178V59.1349L353.249 59.2489V61.3582L353.409 61.4336C353.438 61.4648 353.456 61.4969 353.464 61.5294V62.2978L353.207 62.4461L353.451 62.6466V64.2886L353.674 64.4165V64.836L353.472 64.9454V65.6867L353.669 65.7734C353.724 65.9057 353.669 66.0606 353.669 66.2156L353.821 66.2888C353.847 66.3202 353.866 66.352 353.876 66.3843V67.0549L353.682 67.1507V68.519C353.892 68.6491 353.947 68.8565 354.309 68.9454V69.2738L353.674 69.5771V71.1735L353.855 71.2784L353.669 71.39V73.5998L353.876 73.7094V75.2898L353.627 75.4196L353.863 75.6591V80.562L354.078 80.6647L353.892 80.7788V81.83L354.12 81.9554L353.855 82.22L354.12 82.3909L353.897 82.6191V84.4914L354.078 84.5781L353.892 84.6922V85.3216L354.094 85.431V85.9555L353.876 86.0648V86.5918L354.086 86.6921V87.1163L353.884 87.2143L354.057 87.3259V87.7615L353.871 87.8529L354.078 87.9645V88.1721L353.863 88.2815V88.4776L354.073 88.587V89.5379L353.884 89.6316L354.065 89.7456V93.3123L354.288 93.4399V93.6474L354.086 93.757V94.1787L354.302 94.295V97.0318L354.52 97.1481C354.278 97.3433 354.278 97.5615 354.52 97.7568L354.302 97.8778V98.0852L354.504 98.1901C354.527 98.228 354.52 98.2672 354.483 98.3039C354.446 98.3407 354.383 98.3735 354.296 98.4V98.7193L354.504 98.8309C354.588 98.9519 354.33 98.9814 354.275 99.0955L354.498 99.2689V100.616L354.296 100.726V101.672L354.512 101.782V101.989L354.296 102.099V104.106L354.483 104.195V105.649L354.706 105.793V107.98L354.929 108.11L354.735 108.22V108.53L355 108.69L354.735 108.856C354.664 108.965 354.866 109.009 354.929 109.061V109.289L354.743 109.38L354.924 109.485L354.685 109.654L354.945 109.818V111.709L354.785 111.789C354.693 111.855 354.874 111.857 354.924 111.948V113.184C354.924 113.198 354.832 113.239 354.756 113.289L354.937 113.399V114.767L354.735 114.876V115.159L354.937 115.266C354.955 115.304 354.947 115.342 354.913 115.379C354.879 115.415 354.821 115.448 354.743 115.476V115.8L354.924 115.889V117.586C354.924 117.601 354.832 117.643 354.748 117.69V118.124L354.937 118.215V118.532L354.727 118.641V118.952L354.512 119.065V119.592L354.672 119.67C354.701 119.7 354.719 119.732 354.727 119.763V121.385L354.533 121.478V123.782L354.317 123.914L354.504 124.023V125.287L354.302 125.392C354.278 125.429 354.286 125.468 354.32 125.505C354.357 125.542 354.42 125.575 354.504 125.601V127.084L354.317 127.175V127.631L354.477 127.709C354.533 127.738 354.428 127.756 354.393 127.779C354.37 127.795 354.338 127.81 354.302 127.823V128.881L354.504 128.993V129.2L354.296 129.309V133.526L354.078 133.636C353.989 133.752 354.233 133.786 354.317 133.889L354.094 134.082V134.698L354.281 134.787V135.635L354.078 135.745V135.953L354.288 136.062V136.691L354.078 136.801V137.008L354.296 137.127V137.836L354.107 137.952C354.107 138.041 353.973 138.146 354.191 138.228C354.407 138.31 354.246 138.39 354.302 138.457C354.225 138.541 353.989 138.577 354.073 138.684L354.288 138.796V139.847L354.036 139.98L354.267 140.208V141.754C354.267 141.768 354.176 141.809 354.099 141.859L354.281 141.968V142.703L354.078 142.812V143.019L354.288 143.129V147.462L354.094 147.555C354.094 147.656 354.094 147.783 354.057 147.891L353.892 147.97L354.281 148.34V149.462L354.078 149.574V149.886L354.288 149.995V150.942L354.036 151.076L354.267 151.291V152.103L354.107 152.201L354.33 152.374L354.073 152.541V152.846L354.281 152.937V153.375L354.094 153.464V154.65L354.281 154.741V155.058L354.491 155.159V156.007L354.296 156.116V156.422L354.065 156.538V156.853L354.288 156.965V157.149L354.078 157.289V157.692L353.871 157.795V158.707C353.8 158.81 353.585 158.846 353.627 158.951C353.656 158.99 353.653 159.03 353.616 159.068C353.577 159.106 353.509 159.14 353.417 159.165V159.487L353.193 159.606V160.025L352.991 160.121V160.328L352.794 160.458V160.871C352.508 160.944 352.571 161.058 352.566 161.172L352.356 161.291V161.681L352.133 161.804V162.109L351.909 162.228V162.433L351.694 162.547C351.718 162.6 351.718 162.654 351.694 162.707C351.429 162.941 351.214 163.18 351.051 163.423V163.804L351.253 163.911L351.046 164.02C350.962 164.13 351.185 164.169 351.261 164.249C351.227 164.344 351.379 164.476 351.067 164.518V165.049L350.843 165.186V165.48L350.618 165.608V167.569L350.681 167.566Z" fill="#4F352A"/>
</svg>
