<svg width="110" height="24" viewBox="0 0 110 24" fill="none" xmlns="http://www.w3.org/2000/svg">
<path d="M98.5765 13.1523H95.6773C95.5383 13.1523 95.4375 13.2532 95.4375 13.3921V13.686C95.4375 13.8249 95.5383 13.9257 95.6773 13.9257H96.7396V16.0553C96.7396 16.1942 96.8404 16.295 96.9793 16.295H97.3039C97.4379 16.295 97.5437 16.1893 97.5437 16.0553V13.9257H98.5765C98.7154 13.9257 98.8162 13.8249 98.8162 13.686V13.3921C98.8175 13.2532 98.7154 13.1523 98.5765 13.1523Z" fill="#BF8445"/>
<path d="M100.917 13.1094C100.373 13.1094 99.8854 13.3541 99.5767 13.7819C99.4993 13.8889 99.5165 14.0131 99.621 14.1004L99.8891 14.3045C99.996 14.3807 100.131 14.361 100.211 14.2602C100.414 13.9959 100.626 13.8828 100.918 13.8828C101.238 13.8828 101.426 13.97 101.566 14.1852C101.628 14.2787 101.637 14.3537 101.642 14.4139H100.418C100.343 14.4139 100.282 14.4742 100.282 14.5492V14.918C100.282 15.0029 100.351 15.0717 100.436 15.0717H101.661C101.656 15.0963 101.651 15.1418 101.645 15.1553C101.534 15.4234 101.286 15.5598 100.903 15.5598C100.632 15.5598 100.373 15.4234 100.178 15.1725C100.115 15.0975 99.9948 15.0459 99.8583 15.1418L99.5952 15.3471C99.4944 15.4307 99.4796 15.5549 99.5571 15.6607C99.862 16.0885 100.353 16.3332 100.903 16.3332C101.827 16.3332 102.524 15.6385 102.524 14.7188C102.523 13.8016 101.832 13.1094 100.917 13.1094Z" fill="#BF8445"/>
<path d="M105.152 14.4987L106.326 13.5212C106.391 13.456 106.411 13.3651 106.378 13.2839C106.346 13.204 106.266 13.1523 106.177 13.1523H105.714C105.61 13.1523 105.516 13.188 105.467 13.2409L104.093 14.2995V13.3921C104.093 13.2532 103.992 13.1523 103.853 13.1523H103.529C103.39 13.1523 103.289 13.2532 103.289 13.3921V16.0553C103.289 16.1942 103.39 16.295 103.529 16.295H103.853C103.992 16.295 104.093 16.1942 104.093 16.0553V15.3569L104.544 15.0089L105.542 16.1721C105.615 16.2532 105.709 16.295 105.822 16.295H106.234C106.328 16.295 106.41 16.2434 106.444 16.161C106.477 16.0823 106.459 15.9876 106.397 15.9262L105.152 14.4987Z" fill="#BF8445"/>
<path d="M97.9148 8.29862H97.5386V8.19411C97.5386 8.05395 97.4377 7.95312 97.2976 7.95312H96.973C96.8341 7.95312 96.732 8.05395 96.732 8.19411V8.29862H96.3656C95.6586 8.29862 95.125 8.83224 95.125 9.53922C95.125 10.2425 95.6586 10.7737 96.3656 10.7737H96.732V10.9409C96.732 11.0811 96.8328 11.1819 96.973 11.1819H97.2976C97.4365 11.1819 97.5386 11.0811 97.5386 10.9409V10.7737H97.9148C98.607 10.7737 99.1493 10.2314 99.1493 9.53922C99.1493 8.83224 98.6193 8.29862 97.9148 8.29862ZM98.3328 9.53922C98.3328 9.83185 98.1828 9.99415 97.9099 9.99415H97.5386V9.07938H97.9099C98.1828 9.07938 98.3328 9.2429 98.3328 9.53922ZM96.732 9.07938V9.99415H96.3656C96.0926 9.99415 95.9426 9.83308 95.9426 9.53922C95.9426 9.2429 96.0926 9.07938 96.3656 9.07938H96.732Z" fill="#BF8445"/>
<path d="M102.629 7.99609H102.211C102.123 7.99609 102.05 8.04036 101.999 8.12274L101.285 9.48137L100.477 8.11905C100.43 8.04159 100.352 7.99609 100.266 7.99609H99.8204C99.7073 7.99609 99.6569 8.06864 99.6434 8.09077C99.6163 8.13626 99.5967 8.21249 99.6557 8.31823L100.834 10.2523L100.483 10.8646C100.424 10.9703 100.452 11.0478 100.475 11.0847C100.492 11.1142 100.545 11.1818 100.661 11.1818H101.07C101.159 11.1818 101.241 11.1351 101.288 11.0539L102.817 8.33421C102.86 8.25675 102.862 8.16946 102.822 8.09937C102.782 8.03421 102.712 7.99609 102.629 7.99609Z" fill="#BF8445"/>
<path d="M106.635 10.3568H106.522L105.284 8.1129C105.282 8.11044 105.281 8.10921 105.28 8.10675C105.279 8.10429 105.277 8.10183 105.276 8.1006C105.237 8.03421 105.167 7.99609 105.076 7.99609H104.658C104.574 7.99609 104.504 8.03421 104.467 8.09692C104.465 8.1006 104.462 8.10552 104.461 8.11044C104.459 8.11413 104.456 8.11659 104.455 8.11905L103.219 10.3568H103.11C102.967 10.3568 102.852 10.4724 102.852 10.615V10.9236C102.852 11.0662 102.967 11.1818 103.116 11.1818H106.635C106.777 11.1818 106.893 11.0662 106.893 10.9236V10.615C106.893 10.4724 106.777 10.3568 106.635 10.3568ZM105.606 10.3568H104.136L104.872 9.04857L105.606 10.3568Z" fill="#BF8445"/>
<path d="M7.77554 11.8203C7.77308 11.8203 7.77062 11.8203 7.76939 11.8203L2.79471 11.9088C2.56724 11.9088 2.38281 12.0687 2.38281 12.2629C2.38281 12.4375 2.53404 12.5888 2.73569 12.6146C3.79677 12.7449 5.77386 13.0154 7.1079 13.3708C9.95795 14.1281 10.4842 15.8052 10.9613 18.2766L11.0215 18.5876C11.2428 19.7262 11.4506 20.8033 11.5354 21.8853C11.5539 22.1139 11.7322 22.2935 11.9412 22.2935C12.1662 22.2935 12.3494 22.093 12.3494 21.8471C12.3494 20.4319 12.3715 16.5085 12.3715 16.5085L12.3703 16.4729C12.3531 11.8289 9.03703 11.8203 7.77554 11.8203Z" fill="#BF8445"/>
<path d="M21.1034 11.7101C20.0435 11.581 18.0664 11.3105 16.7311 10.954C13.8811 10.1966 13.3549 8.51948 12.8778 6.04813L12.8188 5.73952C12.5975 4.59851 12.3897 3.52267 12.3048 2.43822C12.2852 2.20584 12.1106 2.03125 11.8991 2.03125C11.6741 2.03125 11.4909 2.23166 11.4909 2.47757C11.4909 3.89276 11.4688 7.81619 11.4688 7.81619L11.47 7.9121H11.4712C11.5155 12.5032 14.8192 12.5032 16.0684 12.5032H16.0697L21.0443 12.4146C21.2718 12.4146 21.4562 12.256 21.4562 12.0605C21.4562 11.8835 21.3087 11.7359 21.1034 11.7101Z" fill="#BF8445"/>
<path d="M53.4034 18.6845H53.4009L53.3984 18.5898V18.6845V18.7804H53.4021L53.3997 18.6845C53.4021 18.6845 53.4034 18.6845 53.4034 18.6845Z" fill="#BF8445"/>
<path d="M39.9826 12.0921C39.9826 9.56783 38.1924 7.80469 35.6276 7.80469C33.0542 7.80469 31.2578 9.56783 31.2578 12.0921C31.2578 14.6261 33.0554 16.3954 35.6276 16.3954C38.1924 16.3954 39.9826 14.6261 39.9826 12.0921ZM32.8734 12.0921C32.8734 10.667 33.7243 9.23094 35.6276 9.23094C37.5198 9.23094 38.367 10.6683 38.367 12.0921C38.367 13.5245 37.5198 14.9704 35.6276 14.9704C33.7255 14.9704 32.8734 13.5257 32.8734 12.0921Z" fill="#BF8445"/>
<path d="M45.5439 9.23094C46.4366 9.23094 47.5677 9.53218 47.8874 10.9683C47.9231 11.1306 48.0632 11.2449 48.2292 11.2449H49.235C49.342 11.2449 49.4428 11.1982 49.5116 11.117C49.5743 11.042 49.6026 10.9461 49.5879 10.8539C49.2522 8.74774 47.3145 7.80469 45.5439 7.80469C42.9004 7.80469 41.125 9.52726 41.125 12.0921C41.125 14.6655 42.9004 16.3954 45.5439 16.3954C47.3145 16.3954 49.2522 15.4524 49.5879 13.3474C49.6038 13.254 49.5756 13.1581 49.5116 13.0831C49.4428 13.0019 49.342 12.9552 49.235 12.9552H48.2292C48.0632 12.9552 47.9231 13.0695 47.8874 13.2318C47.5677 14.6692 46.4366 14.9704 45.5439 14.9704C43.525 14.9704 42.807 13.4839 42.807 12.0921C42.8058 10.7088 43.525 9.23094 45.5439 9.23094Z" fill="#BF8445"/>
<path d="M52.1211 7.96875H51.103C50.9346 7.96875 50.7969 8.10646 50.7969 8.2749V15.9275C50.7969 16.0972 50.9346 16.2349 51.1043 16.2349H52.1211C52.2908 16.2349 52.4285 16.0972 52.4285 15.9275V12.807H56.7072V15.9275C56.7072 16.0972 56.8449 16.2349 57.0146 16.2349H58.0155C58.1851 16.2349 58.3228 16.0972 58.3228 15.9275V8.27613C58.3228 8.10646 58.1851 7.96875 58.0155 7.96875H57.0134C56.8449 7.96875 56.7072 8.10646 56.7072 8.2749V11.3819H52.4285V8.27613C52.4285 8.10646 52.2908 7.96875 52.1211 7.96875Z" fill="#BF8445"/>
<path d="M68.3185 12.0921C68.3185 9.56783 66.5283 7.80469 63.9635 7.80469C61.3901 7.80469 59.5938 9.56783 59.5938 12.0921C59.5938 14.6261 61.3913 16.3954 63.9635 16.3954C66.5283 16.3954 68.3185 14.6261 68.3185 12.0921ZM61.2094 12.0921C61.2094 10.667 62.0602 9.23094 63.9635 9.23094C65.8558 9.23094 66.7029 10.6683 66.7029 12.0921C66.7029 13.5245 65.8558 14.9704 63.9635 14.9704C62.0614 14.9704 61.2094 13.5257 61.2094 12.0921Z" fill="#BF8445"/>
<path d="M76.2752 9.82903C75.9838 8.49007 75.0985 7.96875 73.1202 7.96875H69.916C69.7648 7.96875 69.6406 8.0917 69.6406 8.24417V15.9386C69.6406 16.1021 69.7734 16.2349 69.9369 16.2349H73.719C75.3383 16.2349 77.0043 15.9669 77.0854 13.9824C77.1223 13.091 76.799 12.5537 76.5223 12.261C76.2678 11.9918 75.9358 11.8037 75.5952 11.7262C76.0969 11.3918 76.4645 10.6922 76.2752 9.82903ZM75.519 13.8312C75.519 14.6857 75.0149 15.0201 73.719 15.0201H71.1911V12.5463H73.719C75.0149 12.5463 75.519 12.9065 75.519 13.8312ZM71.1911 11.1877V9.16631H73.1202C74.4321 9.16631 74.919 9.45279 74.919 10.2249C74.919 11.1877 74.3559 11.1877 73.1202 11.1877H71.1911Z" fill="#BF8445"/>
<path d="M78.1484 13.8946C78.1484 14.6212 78.4226 16.318 80.9604 16.3942C81.0182 16.3967 81.0747 16.3966 81.1313 16.3966C82.7543 16.3966 83.7674 15.6884 84.1719 15.0933V16.1089C84.1719 16.2307 84.2715 16.3303 84.3932 16.3303L85.3387 16.3278C85.5035 16.3278 85.6375 16.1925 85.6375 16.0278L85.6252 11.5228C85.6252 9.19529 84.2518 7.80469 81.9514 7.80469C79.9177 7.80469 78.5677 8.93217 78.339 10.8195C78.3329 10.8736 78.3488 10.9277 78.3845 10.9683C78.4214 11.0101 78.473 11.0334 78.5284 11.0334H79.7788C79.8673 11.0334 79.9386 10.9646 79.9485 10.8773C80.0813 9.7412 80.7452 9.16455 81.9194 9.16455C83.2621 9.16455 83.9039 9.77563 83.9899 11.1441L80.9235 11.4441C78.6292 11.658 78.1484 12.8949 78.1484 13.8946ZM83.9912 12.3601C83.9654 13.1077 83.6604 13.8023 83.1268 14.3273C82.5747 14.8708 81.8346 15.1683 81.0366 15.1683C81.0206 15.1683 81.0046 15.1683 80.9887 15.1683C80.5645 15.1622 80.1366 14.9642 79.871 14.6532C79.7099 14.4638 79.5329 14.1454 79.5981 13.6966C79.6878 13.0843 80.1907 12.7535 81.1829 12.6564L83.9912 12.3601Z" fill="#BF8445"/>
<path d="M82.0203 2.12109H34.612C29.8943 2.12109 25.8221 5.71747 25.1385 10.4868C25.0954 10.7844 25.3032 11.061 25.6008 11.1028C25.9032 11.1471 26.175 10.9368 26.2168 10.6405C26.8241 6.40478 30.4328 3.21046 34.612 3.21046H82.0215C86.2388 3.21046 89.8524 6.43798 90.4266 10.7192C90.4634 10.9885 90.6958 11.1913 90.9663 11.1913C90.9897 11.1913 91.0143 11.1901 91.0389 11.1864C91.1827 11.1668 91.3118 11.093 91.4003 10.9774C91.4876 10.8618 91.5257 10.7192 91.5073 10.5741C90.8593 5.75559 86.781 2.12109 82.0203 2.12109Z" fill="#BF8445"/>
<path d="M91.0386 13.036C90.7337 12.9966 90.4669 13.2081 90.4263 13.5032C89.8521 17.7832 86.2385 21.0119 82.0212 21.0119H34.6117C30.4325 21.0119 26.8239 17.8176 26.2165 13.5831C26.1747 13.2856 25.8931 13.0802 25.6005 13.1208C25.3029 13.1638 25.0964 13.4405 25.1382 13.738C25.8218 18.5061 29.894 22.1025 34.6117 22.1025H82.0212C86.782 22.1025 90.8603 18.468 91.507 13.6495C91.5267 13.5056 91.4886 13.3618 91.4001 13.2462C91.3116 13.1294 91.1837 13.0556 91.0386 13.036Z" fill="#BF8445"/>
</svg>
