<svg width="42" height="10" viewBox="0 0 42 10" fill="none" xmlns="http://www.w3.org/2000/svg">
<path d="M0.00191274 0.0078125H5.58973V9.98498H3.29685V2.00325H2.29288V9.98498H0V0.0078125H0.00191274Z" fill="#4F352A"/>
<path d="M7.03906 0.0078125H11.7682V2.00325H9.33194V3.85601H11.0511V5.85145H9.33194V7.98955H11.9117V9.98498H7.03906V0.0078125Z" fill="#4F352A"/>
<path d="M14.3023 2.00325H12.7266V0.0078125H18.171V2.00325H16.5952V9.98498H14.3023V2.00325Z" fill="#4F352A"/>
<path d="M19.541 0.0078125H22.1494L23.3618 4.56935L24.5742 0.0078125H27.1826V9.98498H25.037V4.72533L23.903 7.88303H22.8187L21.6847 4.72533V9.98498H19.5391V0.0078125H19.541Z" fill="#4F352A"/>
<path d="M31.5909 10C30.6176 10 29.91 9.78695 29.4683 9.36275C29.0246 8.93666 28.8047 8.27088 28.8047 7.36161V2.63839C28.8047 1.72912 29.0265 1.06144 29.4683 0.637246C29.9119 0.21305 30.6195 0 31.5909 0C32.5624 0 33.2738 0.21305 33.7213 0.637246C34.1688 1.06334 34.3925 1.72912 34.3925 2.63839V7.36161C34.3925 8.27088 34.1688 8.93856 33.7213 9.36275C33.2738 9.78695 32.5643 10 31.5909 10ZM31.5909 8.00457C31.7382 8.00457 31.8606 7.9513 31.9562 7.84288C32.0518 7.73445 32.0996 7.56135 32.0996 7.32167V2.67643C32.0996 2.43675 32.0518 2.26175 31.9562 2.15522C31.8606 2.0468 31.7401 1.99353 31.5909 1.99353C31.4513 1.99353 31.3347 2.0468 31.2391 2.15522C31.1435 2.26365 31.0957 2.43675 31.0957 2.67643V7.32167C31.0957 7.56135 31.1435 7.73635 31.2391 7.84288C31.3347 7.9513 31.4513 8.00457 31.5909 8.00457Z" fill="#4F352A"/>
<path d="M36.3633 9.9983C36.0861 9.9983 35.847 9.9964 35.6462 9.99259C35.543 9.99069 35.4454 9.98689 35.3594 9.98499V7.65476C35.4034 7.67188 35.4454 7.68329 35.4894 7.6928C35.5334 7.70041 35.5793 7.70802 35.6271 7.71183C35.6749 7.71563 35.7285 7.71753 35.7896 7.71753C36.2926 7.71753 36.5584 7.43791 36.5852 6.87675L36.7936 0.0078125H41.7446V9.98499H39.4384V2.00325H38.9431L38.7997 7.33328C38.7824 8.20831 38.553 8.87218 38.1093 9.32301C37.6656 9.77384 37.0843 9.9983 36.3633 9.9983Z" fill="#4F352A"/>
</svg>
