<svg width="47" height="18" viewBox="0 0 47 18" fill="none" xmlns="http://www.w3.org/2000/svg">
<path d="M3.67376 5.16976C3.31128 5.27039 2.96437 5.41547 2.64192 5.60268C2.61746 5.52077 2.59299 5.44355 2.56186 5.36399C2.43733 5.04574 2.2016 4.83513 1.8836 4.75557C1.54781 4.67367 1.21201 4.68069 0.885115 4.77897C0.475936 4.90299 0.211304 5.19784 0.120128 5.63076C0.0823231 5.8086 0.0623089 5.98879 0.0623089 6.17131C0.0556375 7.53792 0.048966 8.90452 0.0422946 10.2711C0.037847 11.4271 0.0311757 12.5831 0.0267281 13.7391C0.0245043 14.2399 0.0178328 14.743 0.0133852 15.2438C0.00893761 15.7071 0.00226632 16.1681 4.25224e-05 16.6314C-0.00440508 17.2539 0.340284 17.7055 0.920696 17.8436C1.04523 17.874 1.17199 17.8881 1.29874 17.8881C1.44551 17.8881 1.59451 17.867 1.74128 17.8272C2.04594 17.743 2.28389 17.5745 2.44845 17.3264C2.60189 17.0971 2.67527 16.821 2.6775 16.484C2.6775 15.7633 2.6775 15.0402 2.6775 14.3194V13.6291C3.42914 14.0106 4.24972 14.1439 5.12368 14.0223C6.21112 13.8725 7.14289 13.3436 7.89009 12.4521C8.61949 11.5839 8.98197 10.5777 8.96641 9.46146C8.95529 8.72433 8.76182 8.00125 8.38822 7.31561C7.59877 5.86242 5.94648 4.5356 3.67598 5.16742L3.67376 5.16976ZM6.12884 10.5379C5.71743 11.172 5.12368 11.4973 4.36759 11.5043C4.02067 11.4997 3.61817 11.4692 3.25124 11.2657C3.0978 11.1791 2.95325 11.0714 2.80203 10.9568C2.75978 10.9263 2.71975 10.8936 2.6775 10.8632C2.68862 10.0512 2.70418 9.20171 2.72197 8.3429C3.21343 7.85383 3.68266 7.59642 4.2008 7.53324C5.25043 7.40219 6.22668 8.09953 6.42238 9.1198C6.51578 9.61356 6.41793 10.0909 6.12884 10.5355V10.5379Z" fill="#4F352A"/>
<path d="M30.4898 9.31735C30.4898 8.93592 30.4565 8.55214 30.4565 8.53576L30.4454 8.39536H30.3097C30.2941 8.40004 30.2764 8.40004 30.2541 8.40004C29.8916 8.41642 28.9265 8.46322 28.5663 6.89069C28.5307 6.73625 28.4684 6.39928 28.5329 5.97338C28.544 5.90318 28.5751 5.77682 28.6018 5.70428C28.6752 5.50537 28.7864 5.36497 28.802 5.34156C28.802 5.34156 28.802 5.34156 28.802 5.33922C28.3172 5.24094 28.0303 5.2152 27.8635 5.20116C27.3854 5.15904 26.616 5.1333 25.9355 5.30412C25.533 5.40475 25.3395 5.51941 25.0282 5.70662C24.8836 5.29476 24.6212 5.05374 24.2454 4.98821C24.0831 4.96013 23.8985 4.95779 23.7006 4.97885C23.0935 5.04438 22.7288 5.40007 22.6487 6.00147C22.6243 6.18399 22.6154 6.36886 22.6065 6.54904V6.5935C22.5887 6.90707 22.5709 7.22064 22.5553 7.53421C22.5131 8.31346 22.4708 9.1161 22.4486 9.90939C22.4263 10.691 22.4263 11.4866 22.4241 12.2541C22.4241 12.5677 22.4241 12.8836 22.4219 13.1972C22.4197 13.6816 22.6176 13.9858 23.0446 14.159C23.2603 14.2455 23.4782 14.29 23.6961 14.29C23.9608 14.29 24.2254 14.2268 24.49 14.0981C24.8191 13.939 25.0148 13.6395 25.0415 13.258C25.0771 12.7222 25.1038 12.2261 25.1216 11.744C25.1438 11.0911 25.1638 10.4382 25.1839 9.78536C25.1994 9.30331 25.2128 8.82125 25.2306 8.3392C25.2306 8.33686 25.2306 8.32984 25.235 8.32516C25.8021 7.85012 26.3936 7.65824 27.0452 7.7378C27.3632 7.88522 27.5433 8.13093 27.6323 8.5381C27.7479 9.06228 27.7568 9.6005 27.7568 10.1036C27.7568 10.5599 27.7568 11.0162 27.7568 11.4726C27.7568 11.9757 27.7568 12.4788 27.7568 12.9819C27.7568 13.1012 27.7635 13.2065 27.7768 13.3072C27.8413 13.8056 28.0792 14.1098 28.4862 14.2104C28.9465 14.3251 29.3846 14.297 29.7871 14.1309C30.0139 14.0373 30.1763 13.8641 30.2541 13.6348C30.3097 13.4686 30.3453 13.2931 30.3675 13.1574C30.4765 12.5303 30.5121 12.1184 30.5254 11.4024C30.5343 10.8899 30.5232 10.5903 30.5099 10.2744C30.501 10.01 30.4898 9.73856 30.4876 9.31033L30.4898 9.31735Z" fill="#4F352A"/>
<path d="M12.2566 1.7396C12.2522 1.53133 12.2455 1.32306 12.241 1.1148C12.2344 0.88313 12.1743 0.684224 12.0565 0.525099C11.7429 0.0945259 11.307 -0.0762993 10.8 0.031344C10.2819 0.141327 9.95274 0.487658 9.87269 1.00949C9.81042 1.42135 9.78596 1.83788 9.77262 2.19357C9.71702 3.52273 9.66143 4.89869 9.62362 6.277C9.59916 7.14282 9.59026 8.02035 9.58137 8.8698C9.57692 9.18805 9.5747 9.5063 9.57025 9.82689L9.5658 10.1311C9.55468 10.9174 9.54356 11.7317 9.53912 12.532C9.53467 13.117 9.80375 13.5476 10.3108 13.7793C10.4709 13.8518 10.6466 13.8869 10.8445 13.8869C10.8979 13.8869 10.9557 13.8846 11.0135 13.8799C11.5917 13.8261 12.1832 13.3651 12.1988 12.5858C12.2255 11.2239 12.2477 9.85965 12.2722 8.50475L12.3011 6.8784C12.3011 6.54611 12.3011 6.2185 12.3011 5.89089C12.3011 5.15376 12.3033 4.39324 12.2966 3.64676C12.29 3.01026 12.2744 2.3644 12.2588 1.7396H12.2566Z" fill="#4F352A"/>
<path d="M36.033 11.0732C35.8061 11.0732 35.5904 11.134 35.4081 11.2487C35.2635 11.3376 35.1345 11.4031 35.0122 11.4476C34.93 11.478 34.8521 11.492 34.781 11.492C34.6653 11.492 34.4941 11.4569 34.3584 11.1527C34.3229 11.0755 34.2895 10.9936 34.2784 10.9257C34.2695 10.8649 34.2606 10.8064 34.2495 10.7455C34.2072 10.4835 34.1694 10.2354 34.1605 9.98737C34.1405 9.40001 34.1316 8.80095 34.1249 8.22061C34.1227 8.04979 34.1205 7.87896 34.1183 7.7058C34.205 7.70112 34.2917 7.69409 34.3785 7.68941C34.8121 7.66133 35.2613 7.63559 35.7016 7.60283C35.7327 7.60283 35.7639 7.59815 35.795 7.59815C36.0085 7.58645 36.2487 7.57241 36.4822 7.43669C36.7935 7.25416 37.156 6.87741 37.1093 6.12625C37.0693 5.49443 36.7268 5.04513 36.1908 4.91877C36.073 4.89069 35.944 4.87665 35.8061 4.87665H35.7861C35.348 4.88133 34.901 4.88835 34.4696 4.89537L34.1516 4.90005C34.1516 4.86963 34.1516 4.83687 34.1516 4.80645C34.1516 4.59818 34.1561 4.38289 34.1472 4.16761C34.1361 3.89382 34.1116 3.65045 34.0693 3.42814C33.9782 2.93907 33.6668 2.60912 33.1932 2.50147C33.0331 2.46403 32.8685 2.44531 32.7062 2.44531C32.5438 2.44531 32.377 2.46403 32.2147 2.50147C31.7054 2.61848 31.4897 2.93439 31.3986 3.17776C31.3252 3.37666 31.2763 3.59195 31.2562 3.79787C31.2229 4.15825 31.2006 4.52564 31.1762 4.88133C31.1717 4.93983 31.1695 4.99833 31.1651 5.05683C31.1339 5.05917 31.1028 5.06385 31.0739 5.06619C30.8137 5.09193 30.5646 5.11768 30.3133 5.1481C29.9286 5.1949 29.6373 5.33764 29.4216 5.58335C29.0324 6.02562 29.0791 6.54512 29.1481 6.89613C29.2392 7.35712 29.5283 7.65431 29.962 7.73154C30.0398 7.74558 30.1443 7.76196 30.2533 7.7643C30.4957 7.76664 30.7403 7.76898 30.976 7.76898H31.065C31.065 7.79472 31.065 7.81812 31.065 7.84386C31.0539 9.0841 31.1139 10.088 31.254 11.0053C31.3963 11.9413 31.6788 12.6972 32.1168 13.3173C32.4704 13.8157 32.9241 14.148 33.4689 14.3048C33.7758 14.3937 34.096 14.4382 34.4185 14.4382C34.7409 14.4382 35.05 14.3961 35.3725 14.3118C35.9974 14.1504 36.4888 13.8883 36.878 13.5115C37.4206 12.9827 37.4984 12.2572 37.0759 11.6207C36.8535 11.2838 36.4555 11.0755 36.033 11.0755V11.0732Z" fill="#4F352A"/>
<path d="M46.0076 7.7777C45.7185 6.67553 45.1003 5.82374 44.1708 5.24575C43.3858 4.75901 42.4873 4.52968 41.3443 4.52734H41.3354C41.3043 4.52734 41.2665 4.53202 41.2242 4.53202C41.1041 4.5367 40.9396 4.54372 40.7772 4.56244C40.2079 4.62329 39.781 4.72859 39.394 4.89942C39.016 5.06556 38.7491 5.30425 38.5757 5.62952C38.5534 5.67164 38.529 5.7044 38.5045 5.7278C37.9441 6.26134 37.5505 6.9189 37.3392 7.68176C37.0946 8.55695 37.059 9.48596 37.2347 10.4407C37.5349 12.0788 38.4111 13.1926 39.8388 13.7496C40.4125 13.9742 41.0152 14.0842 41.6401 14.0842C41.9625 14.0842 42.2894 14.0538 42.6208 13.9953C44.253 13.7028 45.3583 12.7457 45.9076 11.1544C46.2789 10.0803 46.3123 8.94306 46.0076 7.7777ZM43.4325 10.2535C43.2457 10.9789 42.6964 11.4306 41.9625 11.461C41.6868 11.4727 41.3243 11.468 40.9885 11.3253C40.3369 11.0491 39.9455 10.5296 39.8255 9.77847C39.6787 8.85648 39.8633 8.00469 40.377 7.24417C40.3836 7.23247 40.4036 7.21843 40.4125 7.21843C40.6905 7.17631 40.9663 7.13886 41.1664 7.11078L41.2909 7.0944C41.8113 7.1061 42.1582 7.13418 42.494 7.23949C42.9744 7.38925 43.2812 7.7309 43.4302 8.28082C43.6037 8.91732 43.6037 9.57956 43.4302 10.2535H43.4325Z" fill="#4F352A"/>
<path d="M21.7928 11.2713C21.7772 9.80879 21.7572 7.80569 21.7461 6.20742C21.7461 6.02489 21.7261 5.84237 21.6883 5.66686C21.5971 5.23395 21.3325 4.9391 20.9233 4.81507C20.5964 4.71679 20.2606 4.70743 19.9248 4.79167C19.6068 4.87124 19.3711 5.0795 19.2466 5.40009C19.2154 5.47731 19.191 5.55688 19.1665 5.63878C18.844 5.45391 18.4971 5.30883 18.1347 5.20587C15.8642 4.57405 14.2119 5.90087 13.4224 7.35405C13.0488 8.03969 12.8553 8.76277 12.8442 9.4999C12.8287 10.6161 13.1911 11.6223 13.9206 12.4905C14.67 13.3821 15.5995 13.9086 16.687 14.0607C16.8382 14.0818 16.9872 14.0911 17.1384 14.0911C17.7833 14.0911 18.4438 13.9016 19.1798 13.5061C19.2154 13.5763 19.2621 13.6582 19.3222 13.7284C19.5468 13.9928 19.7758 14.0326 20.0493 14.0584C20.3206 14.0841 20.6097 14.1028 20.8855 14.0373L20.9678 14.0186C21.4414 13.9086 21.8128 13.822 21.8106 13.1715C21.8084 12.8181 21.8017 12.1301 21.7928 11.276V11.2713ZM18.9152 10.7214C18.8863 10.7589 18.8507 10.7893 18.8174 10.8244C18.8129 10.8291 18.8107 10.8384 18.8129 10.8431C18.9841 11.3064 19.0308 11.3766 18.8996 11.517C18.8707 11.5475 18.764 11.6598 18.7151 11.7042C18.6839 11.7323 18.6306 11.7815 18.5994 11.7885C18.5839 11.7932 18.575 11.7791 18.575 11.7674C18.5394 11.1801 18.3726 10.6325 18.1502 10.1107C17.85 9.40864 17.2429 8.97104 16.6714 8.88212C16.6647 8.88212 16.6536 8.87978 16.6447 8.87744C16.6247 8.87744 16.6247 8.89382 16.6336 8.89616C16.6469 8.90318 16.6603 8.9102 16.6736 8.91488C16.8493 9.0038 17.0005 9.11145 17.1495 9.23313C17.592 9.6052 17.8678 10.1083 18.0034 10.6957C18.0479 10.8876 18.0657 11.0233 18.0902 11.2199C18.108 11.3486 18.039 11.4071 17.9679 11.4281C17.1606 11.6621 16.2244 11.4609 15.7974 10.5483C15.6151 10.1598 15.5595 9.72923 15.5639 9.30099C15.5684 8.7464 15.6195 8.19414 15.6484 7.63954C15.6573 7.4851 15.7129 7.45467 15.833 7.51552C16.4668 7.84547 17.1095 8.02331 17.7766 8.16372C17.9834 8.20818 18.1925 8.26902 18.3859 8.36496C19.2221 8.78618 19.5201 9.93749 18.9174 10.7167L18.9152 10.7214Z" fill="#4F352A"/>
</svg>
