<svg width="50" height="50" viewBox="0 0 50 50" fill="none" xmlns="http://www.w3.org/2000/svg">
<path d="M0 48.3458V33.8165C0.330671 33.5181 1.64476 32.2732 2.3147 32.2732L14.5109 32.222C16.6108 32.2135 17.7489 33.6886 17.7446 35.5218L17.7231 47.1137C17.7231 48.5292 16.5679 50 14.9317 50L2.25457 49.9915C1.5374 49.9915 0.30061 48.704 0.00429443 48.3458H0ZM12.2992 44.6496C12.6471 41.9253 12.7673 39.8576 12.106 37.645C9.89006 37.2314 7.36494 37.2101 5.37233 37.7558C4.88706 40.1134 4.88276 42.4369 5.45392 44.6027C7.78579 44.9906 9.79559 44.9267 12.2992 44.6496Z" fill="#4F352A"/>
<path d="M0 15.9447V1.87585L2.09568 0.0810027L15.5115 0.119372C16.8127 0.430593 17.8219 1.72237 17.8219 3.10368V14.6785C17.8219 16.5928 16.5164 17.8121 14.6225 17.8121L3.38401 17.8206C1.90673 17.8206 0.751525 17.0362 0.00429443 15.9405L0 15.9447ZM12.1704 5.72561C11.7968 5.36323 10.4999 5.06907 9.91583 5.11596L5.37233 5.49113C5.03307 8.03632 4.96436 9.89086 5.41957 12.338C7.64408 12.7686 9.95448 12.7601 12.3035 12.3849C12.8403 9.85249 12.8618 6.39495 12.1704 5.72135V5.72561Z" fill="#4F352A"/>
<path d="M47.1099 17.8078L35.1756 17.8163C33.5523 17.8163 32.3241 16.7335 32.1008 15.0878V3.15058C32.1008 1.28325 33.3849 0.106583 35.21 0.106583L46.8221 0.0937926C48.6172 0.0937926 50 1.28325 49.9957 3.14205L49.9828 15.1262C49.9828 16.4947 48.5871 17.8078 47.1056 17.8078H47.1099ZM44.5461 12.3423C44.9197 9.70328 44.8639 7.80611 44.4903 5.50819C42.0639 5.12449 39.9339 5.00512 37.6664 5.60624C37.1081 7.68247 37.1081 10.1722 37.6192 12.3124C39.7578 12.807 42.2915 12.7771 44.5461 12.3423Z" fill="#BF8445"/>
<path d="M28.2015 28.4533L28.2831 33.6929L34.9738 33.7568L34.6388 39.3204L28.253 39.3631L28.2401 43.8097L34.9523 43.9077L34.8621 49.5182L28.0641 49.5225L28.1113 44.1934L22.4727 44.1209L22.4384 28.5854L22.0862 28.2231L13.4673 28.2188L13.4029 22.5657L22.4427 22.5443L22.447 11.1528L28.2273 11.1016L28.2573 22.5657L22.5243 22.5827L22.55 28.0397L22.5801 28.1378L28.2015 28.4533Z" fill="#4F352A"/>
<path d="M40.2044 39.3162L40.4664 43.831H49.5491L49.5834 49.514L40.3977 49.5438V43.9845L34.9523 43.9077L34.6388 39.3204L40.2044 39.3162Z" fill="#4F352A"/>
<path d="M40.2044 39.3162L40.5523 33.7483L49.3902 33.6716V39.3631L40.2044 39.3162Z" fill="#4F352A"/>
<path d="M40.5523 33.7483L34.9738 33.7568L34.7848 28.2486L28.2015 28.4533L28.1113 22.5145L35.0898 22.4847L35.1628 28.1421L40.024 28.1079L40.0627 22.5102L45.6884 22.5443L45.7099 28.1847L40.4921 28.2231L40.5523 33.7483Z" fill="#4F352A"/>
<path d="M1.24968 28.2486L1.21532 22.5102L8.4729 22.4847L8.49008 28.206L1.24968 28.2486Z" fill="#4F352A"/>
<path d="M28.2788 6.15621L22.477 6.21163L22.4212 0.0639495L28.2058 0L28.2788 6.15621Z" fill="#4F352A"/>
</svg>
