<svg width="24" height="24" viewBox="0 0 24 24" fill="none" xmlns="http://www.w3.org/2000/svg">
<path d="M19.293 19.293C19.6835 18.9025 20.3165 18.9025 20.707 19.293L22.707 21.293C23.0975 21.6835 23.0976 22.3165 22.707 22.707C22.3165 23.0975 21.6835 23.0975 21.293 22.707L19.293 20.707C18.9025 20.3165 18.9025 19.6835 19.293 19.293ZM20 11.5C20 6.80558 16.1944 3 11.5 3C6.80558 3 3 6.80558 3 11.5C3 16.1944 6.80558 20 11.5 20C16.1944 20 20 16.1944 20 11.5ZM22 11.5C22 17.299 17.299 22 11.5 22C5.70101 22 1 17.299 1 11.5C1 5.70101 5.70101 1 11.5 1C17.299 1 22 5.70101 22 11.5Z" fill="#E7102E"/>
</svg>
