<svg viewBox="0 0 73 18" fill="none" xmlns="http://www.w3.org/2000/svg">
<path d="M0.00333485 0.0165825H9.74569V17.4118H5.74806V3.49562H3.99764V17.4118H0V0.0165825H0.00333485Z" fill="#FFFBC8"/>
<path d="M12.2697 0.0165825H20.515V3.49562H16.2673V6.72592H19.2647V10.205H16.2673V13.9327H20.765V17.4118H12.2697V0.0165825Z" fill="#FFFBC8"/>
<path d="M24.9427 3.49562H22.1954V0.0165825H31.6877V3.49562H28.9403V17.4118H24.9427V3.49562Z" fill="#FFFBC8"/>
<path d="M34.0649 0.0165825H38.6127L40.7265 7.96962L42.8404 0.0165825H47.3881V17.4118H43.6472V8.24157L41.6701 13.747H39.7796L37.8025 8.24157V17.4118H34.0616V0.0165825H34.0649Z" fill="#FFFBC8"/>
<path d="M55.0833 17.435C53.3862 17.435 52.1526 17.0635 51.3824 16.324C50.6089 15.5811 50.2255 14.4203 50.2255 12.835V4.60003C50.2255 3.01473 50.6122 1.85062 51.3824 1.11104C52.1559 0.371452 53.3896 0 55.0833 0C56.777 0 58.0173 0.371452 58.7975 1.11104C59.5777 1.85394 59.9678 3.01473 59.9678 4.60003V12.835C59.9678 14.4203 59.5777 15.5844 58.7975 16.324C58.0173 17.0635 56.7804 17.435 55.0833 17.435ZM55.0833 13.956C55.34 13.956 55.5534 13.8631 55.7201 13.6741C55.8868 13.485 55.9702 13.1832 55.9702 12.7653V4.66636C55.9702 4.24847 55.8868 3.94335 55.7201 3.75763C55.5534 3.56859 55.3434 3.47572 55.0833 3.47572C54.8399 3.47572 54.6365 3.56859 54.4698 3.75763C54.3031 3.94667 54.2198 4.24847 54.2198 4.66636V12.7653C54.2198 13.1832 54.3031 13.4883 54.4698 13.6741C54.6365 13.8631 54.8399 13.956 55.0833 13.956Z" fill="#FFFBC8"/>
<path d="M63.3987 17.435C62.9152 17.435 62.4985 17.4317 62.1484 17.425C61.9683 17.4217 61.7983 17.4151 61.6483 17.4118V13.349C61.7249 13.3789 61.7983 13.3988 61.875 13.4154C61.9517 13.4286 62.0317 13.4419 62.115 13.4485C62.1984 13.4552 62.2917 13.4585 62.3984 13.4585C63.2753 13.4585 63.7388 12.9709 63.7854 11.9926L64.1489 0.0165825H72.781V17.4118H68.76V3.49562H67.8964L67.6464 12.7885C67.6164 14.3141 67.2163 15.4716 66.4428 16.2576C65.6692 17.0436 64.6556 17.435 63.3987 17.435Z" fill="#FFFBC8"/>
</svg>
