<svg viewBox="0 0 78 33" fill="none" xmlns="http://www.w3.org/2000/svg">
<path d="M77.1344 13.6118C76.4858 11.2624 75.0403 9.36837 72.9496 8.13329C71.2867 7.15005 69.3651 6.6705 67.0778 6.66705H67.0226L66.7569 6.6774C66.5465 6.68775 66.2291 6.70155 65.891 6.73605C64.7249 6.8568 63.7761 7.08105 62.9102 7.44329C62.4238 7.64684 61.9856 7.90214 61.5958 8.20228C61.0576 7.78139 60.4193 7.47089 59.7052 7.31564C59.3567 7.23975 58.9876 7.1949 58.6081 7.188C58.1803 5.44231 56.8348 4.13478 55.0477 3.74838C54.5923 3.64833 54.13 3.60003 53.6643 3.60003C53.1985 3.60003 52.7363 3.65178 52.2809 3.74838C50.6973 4.09338 49.4657 5.11112 48.9033 6.5463C48.7446 6.95685 48.6239 7.39154 48.5514 7.82624C48.4445 7.86074 48.341 7.89869 48.2409 7.93664H48.2375L48.1581 7.91939C47.2543 7.74689 46.6988 7.69859 46.3952 7.67444C45.9502 7.63649 45.5086 7.61924 45.0808 7.61924C44.132 7.61924 43.2557 7.71239 42.4864 7.89524C42.4864 7.89524 42.4864 7.89524 42.483 7.89524C42.0379 7.64684 41.548 7.47434 41.0167 7.38809C40.7166 7.33979 40.4026 7.31564 40.0818 7.31564C39.8541 7.31564 39.6229 7.32944 39.3883 7.35359C38.7294 7.42259 38.1291 7.60199 37.5944 7.87109C37.1804 7.58129 36.7112 7.35704 36.2006 7.21215C35.6624 7.0569 35.1069 6.97755 34.5515 6.97755C34.0892 6.97755 33.6269 7.03275 33.1715 7.1397C32.6506 7.26044 32.1676 7.47089 31.7398 7.75034C30.9221 7.53989 30.101 7.43294 29.2972 7.43294C27.7447 7.43294 26.2578 7.83659 24.9364 8.57488C24.9364 8.47828 24.9364 8.37823 24.9364 8.28163C24.9261 7.32944 24.9019 6.3738 24.8778 5.41816L24.8536 4.50047C24.8295 3.54138 24.5224 2.64784 23.9635 1.9199C23.0114 0.677913 21.6521 -0.00518036 20.1341 -0.00518036C19.796 -0.00518036 19.451 0.0293193 19.106 0.0983186C17.1085 0.501964 15.6698 1.9751 15.3524 3.95193C15.2317 4.70747 15.1868 5.42851 15.1592 6.03571C15.1213 6.9051 15.0833 7.78829 15.0454 8.68183C13.6551 7.84004 12.0646 7.38119 10.4017 7.38119C9.5979 7.38119 8.7768 7.48814 7.95571 7.69859C7.52792 7.41914 7.04492 7.2087 6.52398 7.08795C6.06858 6.981 5.60284 6.9258 5.14399 6.9258C4.58855 6.9258 4.0331 7.00515 3.49491 7.1604C1.83893 7.63649 0.627988 8.92333 0.255392 10.6C0.151893 11.0658 0.100144 11.5419 0.0966938 12.0179C0.0863439 14.0362 0.075994 16.051 0.0656441 18.0692C0.0656441 18.0692 0.0483943 21.6502 0.0414944 23.1786C0.0380444 23.91 0.0276945 24.6448 0.0207946 25.3797V25.4625C0.0104447 26.1214 0.00354477 26.7803 9.48094e-05 27.4393C-0.013705 29.7266 1.48013 31.6034 3.71571 32.1071C4.11935 32.1968 4.53335 32.2451 4.94734 32.2451C5.42689 32.2451 5.90988 32.183 6.37908 32.0588C7.52447 31.7586 8.47666 31.1032 9.13215 30.1682C9.71864 29.3333 10.0153 28.3535 10.0188 27.2495C10.0188 27.0356 10.0188 26.8217 10.0188 26.6078C10.4293 26.6044 10.8468 26.5733 11.2642 26.5181C12.9823 26.2905 14.5589 25.6315 15.9148 24.5896C16.3943 25.1589 17.0153 25.6246 17.7605 25.9455C18.3746 26.2111 19.0439 26.3456 19.7511 26.3456C19.9236 26.3456 20.103 26.3388 20.2686 26.3215C21.6452 26.2008 22.8458 25.5315 23.6634 24.5482C25.0468 25.6453 26.6718 26.3353 28.4382 26.5664C28.7969 26.6147 29.1626 26.6389 29.5249 26.6389C30.4115 26.6389 31.3016 26.4974 32.2124 26.2077C32.8852 26.5009 33.482 26.5526 33.789 26.5802C34.0581 26.6044 34.3548 26.6251 34.6791 26.6251C35.1483 26.6251 35.5727 26.5802 35.9694 26.4905L36.1005 26.4629C36.4007 26.3974 36.6732 26.3146 36.9285 26.2215C37.1459 26.3491 37.377 26.4595 37.6254 26.5561C38.2947 26.8148 38.9916 26.9459 39.6885 26.9459C40.5234 26.9459 41.3514 26.7596 42.1483 26.3939C42.8487 26.0697 43.4317 25.5901 43.8664 25.0036C44.4563 25.8834 45.3499 26.5009 46.4504 26.7596C46.9576 26.8804 47.4716 26.939 47.9719 26.939C48.7481 26.939 49.5036 26.7976 50.2178 26.5147C50.7594 26.3008 51.2355 25.9869 51.6323 25.597C52.3499 26.1766 53.1744 26.6044 54.0748 26.8528C54.8062 27.0529 55.5618 27.1564 56.3242 27.1564C57.0384 27.1564 57.7732 27.0667 58.5046 26.8873C59.8984 26.5457 61.0403 25.9662 61.9925 25.1313C62.5238 25.4556 63.0999 25.735 63.7244 25.9627C64.9388 26.4112 66.2222 26.6389 67.5366 26.6389C68.1955 26.6389 68.8752 26.5802 69.5514 26.4664C73.1462 25.8523 75.6923 23.7478 76.9136 20.3876C77.7036 18.2175 77.7795 15.944 77.1413 13.6256L77.1344 13.6118Z" fill="white"/>
<path d="M8.62842 10.5448C8.06608 10.6932 7.52788 10.9071 7.02764 11.1831C6.98969 11.0623 6.95174 10.9485 6.90344 10.8312C6.71024 10.362 6.34455 10.0515 5.8512 9.93416C5.33026 9.81341 4.80931 9.82376 4.30217 9.96866C3.66737 10.1515 3.25683 10.5862 3.11538 11.2245C3.05673 11.4866 3.02568 11.7523 3.02568 12.0214C3.01533 14.0362 3.00498 16.051 2.99463 18.0657C2.98773 19.77 2.97738 21.4743 2.97048 23.1786C2.96703 23.9169 2.95668 24.6586 2.94978 25.3969C2.94288 26.08 2.93253 26.7596 2.92908 27.4427C2.92218 28.3604 3.45693 29.0263 4.35737 29.2298C4.55057 29.2747 4.74721 29.2954 4.94386 29.2954C5.17156 29.2954 5.40271 29.2643 5.6304 29.2057C6.10305 29.0815 6.4722 28.8331 6.72749 28.4674C6.96554 28.1293 7.07939 27.7222 7.08284 27.2254C7.08284 26.1628 7.08284 25.0968 7.08284 24.0342V23.0164C8.24893 23.5788 9.52196 23.7754 10.8778 23.596C12.5648 23.3752 14.0104 22.5955 15.1696 21.2811C16.3011 20.0012 16.8635 18.5177 16.8393 16.872C16.8221 15.7853 16.5219 14.7193 15.9423 13.7084C14.7176 11.566 12.1543 9.60987 8.63187 10.5414L8.62842 10.5448ZM12.4372 18.459C11.7989 19.394 10.8778 19.8735 9.70481 19.8839C9.16662 19.877 8.54217 19.8321 7.97293 19.532C7.73488 19.4043 7.51064 19.2456 7.27604 19.0766C7.21049 19.0317 7.14839 18.9834 7.08284 18.9386C7.10009 17.7414 7.12424 16.4891 7.15184 15.223C7.91428 14.5019 8.64222 14.1224 9.44606 14.0293C11.0744 13.8361 12.589 14.8642 12.8926 16.3683C13.0375 17.0963 12.8857 17.8001 12.4372 18.4556V18.459Z" fill="#4F352A"/>
<path d="M50.2246 16.6581C50.2246 16.0958 50.1729 15.53 50.1729 15.5059L50.1556 15.2989H49.9452C49.921 15.3058 49.8934 15.3058 49.8589 15.3058C49.2966 15.3299 47.7993 15.3989 47.2404 13.0805C47.1852 12.8528 47.0886 12.356 47.1887 11.7281C47.2059 11.6247 47.2542 11.4384 47.2956 11.3314C47.4095 11.0382 47.582 10.8312 47.6061 10.7967C47.6061 10.7967 47.6061 10.7967 47.6061 10.7932C46.854 10.6483 46.409 10.6104 46.1502 10.5897C45.4085 10.5276 44.2148 10.4896 43.1591 10.7415C42.5347 10.8898 42.2345 11.0589 41.7515 11.3349C41.5273 10.7277 41.1202 10.3723 40.5371 10.2757C40.2853 10.2343 39.9989 10.2309 39.6919 10.2619C38.75 10.3585 38.1843 10.8829 38.0601 11.7695C38.0221 12.0386 38.0083 12.3112 37.9945 12.5768V12.6424C37.9669 13.1047 37.9393 13.567 37.9152 14.0293C37.8496 15.1781 37.7841 16.3615 37.7496 17.531C37.7151 18.6833 37.7151 19.8563 37.7116 20.9879C37.7116 21.4502 37.7116 21.9159 37.7082 22.3782C37.7047 23.0923 38.0118 23.5408 38.6741 23.7961C39.0088 23.9238 39.3469 23.9893 39.685 23.9893C40.0955 23.9893 40.5061 23.8962 40.9166 23.7064C41.4272 23.4718 41.7308 23.0302 41.7722 22.4679C41.8274 21.6778 41.8688 20.9465 41.8964 20.2358C41.9309 19.2732 41.962 18.3107 41.993 17.3481C42.0172 16.6374 42.0379 15.9268 42.0655 15.2161C42.0655 15.2126 42.0655 15.2023 42.0724 15.1954C42.9521 14.495 43.8698 14.2121 44.8806 14.3294C45.374 14.5468 45.6534 14.909 45.7914 15.5093C45.9708 16.2821 45.9846 17.0756 45.9846 17.8173C45.9846 18.4901 45.9846 19.1628 45.9846 19.8356C45.9846 20.5773 45.9846 21.3191 45.9846 22.0608C45.9846 22.2367 45.995 22.392 46.0157 22.5403C46.1157 23.2752 46.4849 23.7237 47.1162 23.872C47.8304 24.0411 48.51 23.9997 49.1344 23.7547C49.4863 23.6167 49.7382 23.3614 49.8589 23.0233C49.9452 22.7784 50.0004 22.5196 50.0349 22.3195C50.2039 21.395 50.2591 20.7878 50.2798 19.7321C50.2936 18.9765 50.2764 18.5349 50.2557 18.0692C50.2419 17.6793 50.2246 17.2791 50.2212 16.6478L50.2246 16.6581Z" fill="#4F352A"/>
<path d="M21.9384 5.48716C21.9315 5.18012 21.9212 4.87307 21.9143 4.56602C21.9039 4.22448 21.8108 3.93123 21.6279 3.69663C21.1415 3.06184 20.4653 2.80999 19.6787 2.96869C18.8748 3.13084 18.3643 3.64143 18.2401 4.41077C18.1435 5.01797 18.1055 5.63206 18.0848 6.15645C17.9986 8.11603 17.9123 10.1446 17.8537 12.1766C17.8157 13.4531 17.8019 14.7469 17.7881 15.9992C17.7812 16.4684 17.7778 16.9376 17.7709 17.4102L17.764 17.8587C17.7467 19.0179 17.7295 20.2185 17.7226 21.3984C17.7157 22.2609 18.1331 22.8957 18.9197 23.2372C19.1681 23.3442 19.4406 23.3959 19.7477 23.3959C19.8305 23.3959 19.9202 23.3925 20.0099 23.3856C20.9069 23.3062 21.8246 22.6266 21.8487 21.4777C21.8901 19.4699 21.9246 17.4585 21.9626 15.461L22.0074 13.0633C22.0074 12.5734 22.0074 12.0904 22.0074 11.6074C22.0074 10.5207 22.0109 9.39942 22.0005 8.29888C21.9902 7.36049 21.966 6.4083 21.9419 5.48716H21.9384Z" fill="#4F352A"/>
<path d="M58.8289 19.2491C58.477 19.2491 58.1423 19.3388 57.8594 19.5078C57.6352 19.6389 57.4351 19.7355 57.2453 19.8011C57.1177 19.8459 56.9969 19.8666 56.8865 19.8666C56.7071 19.8666 56.4415 19.8149 56.231 19.3664C56.1758 19.2525 56.1241 19.1318 56.1068 19.0317C56.093 18.942 56.0792 18.8558 56.062 18.7661C55.9964 18.3797 55.9378 18.014 55.924 17.6483C55.893 16.7823 55.8792 15.8992 55.8688 15.0436C55.8654 14.7917 55.8619 14.5399 55.8585 14.2846C55.993 14.2777 56.1275 14.2673 56.2621 14.2604C56.9348 14.219 57.6317 14.1811 58.3148 14.1328C58.3631 14.1328 58.4114 14.1259 58.4597 14.1259C58.7909 14.1086 59.1635 14.0879 59.5258 13.8878C60.0088 13.6187 60.5711 13.0633 60.4987 11.9558C60.4366 11.0244 59.9053 10.362 59.0738 10.1757C58.891 10.1343 58.6909 10.1136 58.477 10.1136H58.4459C57.7663 10.1205 57.0728 10.1308 56.4035 10.1412L55.9102 10.1481C55.9102 10.1032 55.9102 10.0549 55.9102 10.0101C55.9102 9.70302 55.9171 9.38562 55.9033 9.06823C55.8861 8.66458 55.8481 8.30578 55.7826 7.97804C55.6411 7.257 55.1581 6.77055 54.4233 6.61185C54.1749 6.55665 53.9196 6.52905 53.6677 6.52905C53.4159 6.52905 53.1571 6.55665 52.9053 6.61185C52.1152 6.78435 51.7806 7.2501 51.6391 7.60889C51.5253 7.90214 51.4494 8.21954 51.4183 8.52313C51.3666 9.05443 51.3321 9.59607 51.2941 10.1205C51.2872 10.2067 51.2838 10.293 51.2769 10.3792C51.2286 10.3827 51.1803 10.3896 51.1354 10.393C50.7318 10.431 50.3454 10.4689 49.9556 10.5138C49.3587 10.5828 48.9068 10.7932 48.5721 11.1555C47.9684 11.8075 48.0408 12.5734 48.1478 13.0909C48.2892 13.7705 48.7377 14.2087 49.4105 14.3225C49.5312 14.3432 49.6934 14.3674 49.8624 14.3708C50.2385 14.3743 50.618 14.3777 50.9836 14.3777H51.1217C51.1217 14.4157 51.1217 14.4502 51.1217 14.4881C51.1044 16.3166 51.1975 17.7966 51.4149 19.149C51.6357 20.529 52.0738 21.6433 52.7535 22.5576C53.302 23.2924 54.0058 23.7823 54.8511 24.0135C55.3272 24.1446 55.8239 24.2101 56.3242 24.2101C56.8244 24.2101 57.304 24.148 57.8042 24.0238C58.7737 23.7858 59.5361 23.3994 60.1399 22.8439C60.9816 22.0642 61.1024 20.9948 60.4469 20.0564C60.1019 19.5596 59.4844 19.2525 58.8289 19.2525V19.2491Z" fill="#4F352A"/>
<path d="M74.3088 14.3915C73.8603 12.7666 72.9013 11.5108 71.4592 10.6587C70.2413 9.94106 68.8476 9.60296 67.0743 9.59951H67.0605C67.0122 9.59951 66.9535 9.60641 66.888 9.60641C66.7017 9.61331 66.4464 9.62366 66.1945 9.65126C65.3113 9.74096 64.6489 9.89621 64.0486 10.1481C63.4622 10.393 63.0482 10.7449 62.7791 11.2244C62.7446 11.2865 62.7066 11.3348 62.6687 11.3693C61.7993 12.1559 61.1886 13.1254 60.8609 14.2501C60.4814 15.5404 60.4262 16.91 60.6987 18.3176C61.1645 20.7325 62.5238 22.3747 64.7386 23.1958C65.6287 23.527 66.5637 23.6892 67.5331 23.6892C68.0334 23.6892 68.5405 23.6443 69.0546 23.5581C71.5868 23.1268 73.3015 21.7158 74.1536 19.3698C74.7297 17.7863 74.7815 16.1096 74.3088 14.3915ZM70.3138 18.0416C70.024 19.1111 69.1718 19.7769 68.0334 19.8218C67.6056 19.839 67.0432 19.8321 66.5223 19.6217C65.5114 19.2146 64.9042 18.4487 64.7179 17.3412C64.4902 15.9819 64.7766 14.7262 65.5735 13.6049C65.5839 13.5877 65.6149 13.567 65.6287 13.567C66.06 13.5049 66.4878 13.4497 66.7983 13.4083L66.9915 13.3841C67.7988 13.4014 68.337 13.4428 68.8579 13.598C69.6031 13.8188 70.0792 14.3225 70.3103 15.1333C70.5794 16.0716 70.5794 17.048 70.3103 18.0416H70.3138Z" fill="#4F352A"/>
<path d="M36.7388 19.5388C36.7146 17.3826 36.6836 14.4294 36.6663 12.0731C36.6663 11.804 36.6353 11.5349 36.5766 11.2762C36.4352 10.6379 36.0246 10.2032 35.3898 10.0204C34.8827 9.87549 34.3617 9.86169 33.8408 9.98589C33.3474 10.1032 32.9817 10.4102 32.7885 10.8829C32.7402 10.9967 32.7023 11.114 32.6643 11.2348C32.1641 10.9622 31.6259 10.7483 31.0636 10.5965C27.5411 9.66504 24.9778 11.6212 23.7531 13.7636C23.1735 14.7744 22.8733 15.8405 22.8561 16.9272C22.8319 18.5729 23.3943 20.0563 24.5259 21.3363C25.6885 22.6507 27.1306 23.427 28.8176 23.6512C29.0522 23.6822 29.2834 23.696 29.518 23.696C30.5185 23.696 31.5431 23.4166 32.685 22.8336C32.7402 22.9371 32.8127 23.0578 32.9058 23.1613C33.2543 23.5512 33.6096 23.6098 34.034 23.6478C34.4549 23.6857 34.9034 23.7133 35.3312 23.6167L35.4588 23.5891C36.1937 23.427 36.7698 23.2993 36.7664 22.3402C36.7629 21.8193 36.7526 20.805 36.7388 19.5457V19.5388ZM32.2745 18.7281C32.2296 18.7833 32.1744 18.8281 32.1227 18.8799C32.1158 18.8868 32.1123 18.9006 32.1158 18.9075C32.3814 19.5906 32.4539 19.6941 32.2503 19.9011C32.2055 19.9459 32.0399 20.1115 31.964 20.1771C31.9157 20.2185 31.8329 20.2909 31.7846 20.3013C31.7605 20.3082 31.7467 20.2875 31.7467 20.2702C31.6915 19.4043 31.4327 18.597 31.0877 17.8277C30.622 16.7927 29.6801 16.1475 28.7935 16.0164C28.7831 16.0164 28.7659 16.013 28.7521 16.0095C28.721 16.0095 28.721 16.0337 28.7348 16.0371C28.7555 16.0475 28.7762 16.0578 28.7969 16.0647C29.0695 16.1958 29.3041 16.3545 29.5352 16.5339C30.2218 17.0825 30.6496 17.8242 30.86 18.6902C30.929 18.973 30.9566 19.1731 30.9946 19.4629C31.0222 19.6527 30.9152 19.7389 30.8048 19.77C29.5525 20.115 28.1 19.8183 27.4376 18.4728C27.1547 17.9001 27.0685 17.2653 27.0754 16.634C27.0823 15.8163 27.1616 15.0021 27.2065 14.1845C27.2203 13.9568 27.3065 13.912 27.4928 14.0016C28.4761 14.4881 29.4731 14.7503 30.5081 14.9573C30.829 15.0228 31.1533 15.1125 31.4534 15.254C32.7506 15.875 33.2129 17.5724 32.2779 18.7212L32.2745 18.7281Z" fill="#4F352A"/>
</svg>
